<?xml version="1.0" encoding="UTF-8"?><svg xmlns="http://www.w3.org/2000/svg" xmlns:xlink="http://www.w3.org/1999/xlink" height="425.2" preserveAspectRatio="xMidYMid meet" version="1.0" viewBox="0.1 0.0 424.9 425.2" width="424.9" zoomAndPan="magnify"><defs><clipPath id="a"><path d="M 0 212 L 213 212 L 213 425.199219 L 0 425.199219 Z M 0 212"/></clipPath><clipPath id="b"><path d="M 212 0 L 425.199219 0 L 425.199219 213 L 212 213 Z M 212 0"/></clipPath><clipPath id="c"><path d="M 212 212 L 425.199219 212 L 425.199219 425.199219 L 212 425.199219 Z M 212 212"/></clipPath><clipPath id="d"><path d="M 245 414 L 267 414 L 267 425.199219 L 245 425.199219 Z M 245 414"/></clipPath><clipPath id="e"><path d="M 343 366 L 374 366 L 374 425.199219 L 343 425.199219 Z M 343 366"/></clipPath><clipPath id="f"><path d="M 266 354 L 380 354 L 380 425.199219 L 266 425.199219 Z M 266 354"/></clipPath><clipPath id="g"><path d="M 232 369 L 279 369 L 279 425.199219 L 232 425.199219 Z M 232 369"/></clipPath><clipPath id="h"><path d="M 299 404 L 328 404 L 328 425.199219 L 299 425.199219 Z M 299 404"/></clipPath><clipPath id="i"><path d="M 141 351 L 166 351 L 166 425.199219 L 141 425.199219 Z M 141 351"/></clipPath><clipPath id="j"><path d="M 59 340 L 167 340 L 167 425.199219 L 59 425.199219 Z M 59 340"/></clipPath><clipPath id="k"><path d="M 45 347 L 83 347 L 83 425.199219 L 45 425.199219 Z M 45 347"/></clipPath><clipPath id="l"><path d="M 96 390 L 154 390 L 154 425.199219 L 96 425.199219 Z M 96 390"/></clipPath></defs><g><g><path d="M 212.945312 212.796875 L 0.144531 212.796875 L 0.144531 0 L 212.945312 0 L 212.945312 212.796875" fill="#f03656"/></g><g clip-path="url(#a)"><path d="M 212.945312 425.199219 L 0.144531 425.199219 L 0.144531 212.398438 L 212.945312 212.398438 L 212.945312 425.199219" fill="#2c4f73"/></g><g clip-path="url(#b)"><path d="M 425.054688 212.796875 L 212.257812 212.796875 L 212.257812 0 L 425.054688 0 L 425.054688 212.796875" fill="#41a0d6"/></g><g clip-path="url(#c)"><path d="M 425.054688 425.199219 L 212.257812 425.199219 L 212.257812 212.398438 L 425.054688 212.398438 L 425.054688 425.199219" fill="#4a7080"/></g><g><path d="M 290.605469 212.796875 L 295.828125 183.777344 C 288.023438 138.144531 269.242188 150.617188 269.242188 150.617188 C 266.480469 152.304688 254.222656 185.6875 244.421875 212.796875 L 290.605469 212.796875" fill="#203554"/></g><g><path d="M 276.4375 179.746094 C 277.0625 174.136719 277.855469 154.097656 278.859375 152.695312 C 278.859375 152.695312 296.714844 148.84375 298.183594 145.671875 C 300.480469 140.78125 303.730469 126.09375 304.589844 111.695312 C 304.804688 108.113281 330.613281 92.382812 330.613281 92.382812 C 330.613281 92.382812 330.074219 126.824219 337.941406 142.398438 C 337.941406 142.398438 364.445312 146.265625 370.410156 152.234375 C 371.964844 153.777344 373.199219 156.785156 374.011719 160.71875 L 276.4375 179.746094" fill="#e4846c"/></g><g><path d="M 299.246094 142.898438 C 301.265625 136.800781 303.601562 125.273438 304.46875 113.609375 L 326.039062 98.996094 L 330.671875 98.996094 C 330.78125 103.089844 331.035156 108.683594 331.613281 114.675781 C 326.886719 125.070312 313.890625 149.65625 299.246094 142.898438" fill="#d26758"/></g><g><path d="M 347.039062 212.796875 L 338.605469 142.429688 C 338.605469 142.429688 310.695312 156.28125 307.980469 155.894531 C 305.519531 155.546875 300.535156 150.757812 296.9375 145.519531 L 289.546875 148.371094 L 279.800781 212.796875 L 347.039062 212.796875" fill="#cbdaf2"/></g><g><path d="M 310.332031 212.796875 L 309.765625 169.675781 L 302.710938 170.304688 L 295.03125 212.796875 L 310.332031 212.796875" fill="#1d2e45"/></g><g><path d="M 301.398438 159.507812 L 302.773438 170.84375 L 309.871094 172.535156 L 313.898438 163.320312 L 308.601562 155.84375 L 306.800781 155.84375 L 301.398438 159.507812" fill="#1d2e45"/></g><g><path d="M 307.980469 155.894531 L 295.578125 175.367188 L 293.289062 148.390625 L 295.414062 145.671875 L 307.980469 155.894531" fill="#96ddf8"/></g><g><path d="M 307.980469 155.894531 L 319.347656 178.085938 L 331.613281 145.839844 C 331.613281 145.839844 319.183594 150.355469 307.980469 155.894531" fill="#96ddf8"/></g><g><path d="M 380.28125 212.796875 C 386.417969 171.03125 380.976562 151.574219 380.976562 151.574219 C 374.011719 147.632812 343.105469 140.933594 337.339844 140.675781 C 337.339844 140.675781 320.902344 166.679688 307.167969 212.796875 L 380.28125 212.796875" fill="#283d5f"/></g><g><path d="M 264.386719 212.796875 L 295.84375 212.796875 C 294.789062 186.140625 294.390625 161.980469 296.757812 140.234375 L 280.292969 144.070312 C 262.382812 146.457031 265.09375 170.28125 265.09375 170.28125 L 264.386719 212.796875" fill="#283d5f"/></g><g><path d="M 343.160156 202.089844 L 330.027344 199.011719 C 330.027344 199.011719 330.371094 202.089844 331.613281 203.359375 L 344.011719 209.144531 L 343.160156 202.089844" fill="#ea7b20"/></g><g><path d="M 348.8125 203.277344 L 361.945312 200.199219 C 361.945312 200.199219 361.605469 203.277344 360.363281 204.546875 L 347.964844 210.339844 L 348.8125 203.277344" fill="#ea7b20"/></g><g><path d="M 350.925781 206.457031 C 350.925781 209.246094 348.664062 211.503906 345.878906 211.503906 C 343.085938 211.503906 340.824219 209.246094 340.824219 206.457031 C 340.824219 203.664062 343.085938 201.40625 345.878906 201.40625 C 348.664062 201.40625 350.925781 203.664062 350.925781 206.457031" fill="#ea7b20"/></g><g><path d="M 380.210938 212.796875 C 380.492188 210.808594 380.75 208.871094 380.976562 206.988281 C 379.058594 202.480469 377.464844 198.066406 378.304688 191.449219 L 368.503906 192.070312 L 357.835938 212.796875 L 380.210938 212.796875" fill="#223451"/></g><g><path d="M 281.121094 70.882812 C 281.121094 70.882812 278.863281 87.050781 281.898438 102.78125 C 283.699219 112.082031 293.390625 125.574219 299.28125 128.136719 C 299.28125 128.136719 300.882812 129.054688 306.660156 128.101562 C 313.765625 126.933594 326.449219 116.671875 329.9375 102.703125 C 329.9375 102.703125 333.324219 104.0625 335.742188 97.609375 C 338.4375 90.355469 336.410156 80.441406 329.539062 86.554688 C 329.539062 86.554688 331.777344 58.207031 319.121094 56.460938 C 306.460938 54.710938 282.238281 50.40625 281.121094 70.882812" fill="#f79375"/></g><g><path d="M 327.234375 212.796875 L 331.613281 205.390625 L 325.441406 195.78125 L 345.878906 191.492188 C 345.878906 191.492188 344.226562 148.792969 342.6875 142.636719 L 338.0625 135.644531 L 335.117188 134.953125 C 335.117188 134.953125 319.699219 168.867188 307.929688 212.796875 L 327.234375 212.796875" fill="#30466f"/></g><g><path d="M 286.515625 210.671875 C 286.609375 211.394531 286.710938 212.09375 286.8125 212.796875 L 296.957031 212.796875 C 296.800781 175.726562 300.324219 139.210938 300.324219 139.210938 L 296.757812 140.234375 L 292.265625 146.230469 C 289.257812 155.128906 280.324219 188.855469 280.324219 188.855469 L 290.421875 199.019531 L 286.515625 210.671875" fill="#30466f"/></g><g><path d="M 383.894531 212.796875 L 386.796875 205.765625 C 404.550781 153.351562 377.859375 150.683594 377.859375 150.683594 C 369.699219 148.867188 357.039062 183.664062 347.953125 212.796875 L 383.894531 212.796875" fill="#30466f"/></g><g><path d="M 336.890625 47.027344 C 330.550781 42.789062 290.277344 29.019531 283.496094 40.246094 C 276.722656 51.476562 280.394531 80.277344 280.394531 80.277344 C 280.386719 71.371094 283.65625 62.242188 283.65625 62.242188 C 285.09375 63.269531 293.289062 64.371094 293.289062 64.371094 C 298.414062 66.25 318.027344 61.007812 319.796875 61.007812 C 321.566406 61.007812 321.203125 64.605469 321.320312 71.601562 C 321.40625 76.738281 323.984375 82.636719 325.34375 85.402344 C 325.578125 85.933594 325.832031 86.425781 326.089844 86.855469 L 326.171875 86.996094 L 326.175781 86.988281 C 327.019531 88.347656 327.898438 89.09375 328.40625 88.78125 C 329.003906 88.410156 329.65625 87.617188 330.238281 86.777344 C 335.632812 80.644531 338.253906 90.589844 336.042969 96.105469 C 332.914062 103.890625 330.03125 102.320312 330.03125 102.320312 C 329.960938 102.632812 329.855469 102.941406 329.777344 103.246094 C 329.960938 105.246094 331.113281 108.5 331.113281 108.5 C 331.996094 108.453125 334.941406 100.554688 334.941406 100.554688 C 337.863281 92.089844 341.382812 80.445312 341.820312 69.757812 L 341.878906 69.691406 C 342.335938 64.675781 343.234375 51.261719 336.890625 47.027344" fill="#cbdaf2"/></g><g><path d="M 281.15625 98.171875 C 281.15625 98.171875 286.96875 119.945312 294.03125 122.550781 C 301.09375 125.15625 306.835938 123.285156 309.414062 120.742188 C 309.414062 120.742188 325.796875 108.5 326.074219 81.90625 L 328.898438 82.617188 C 328.898438 82.617188 332.292969 104.078125 326.925781 113.964844 C 321.558594 123.851562 308.429688 132.324219 299.246094 130.769531 C 290.0625 129.21875 279.164062 115.980469 281.15625 98.171875" fill="#cbdaf2"/></g><g><path d="M 286.53125 117.636719 C 286.53125 117.636719 289.730469 110.433594 293.289062 110.292969 C 296.84375 110.148438 303.4375 109.164062 305.4375 110.292969 C 307.4375 111.425781 311.777344 119.613281 311.777344 119.613281 L 313.085938 118.625 C 313.085938 118.625 312.054688 107.609375 307.980469 105.492188 C 303.90625 103.371094 291.714844 105.066406 290.324219 105.492188 C 288.9375 105.914062 285.121094 117.214844 285.121094 117.214844 L 286.53125 117.636719" fill="#cbdaf2"/></g><g><path d="M 280.3125 50.214844 L 342.015625 58.859375 C 342.015625 58.859375 355.863281 52.535156 350.925781 47.027344 C 345.988281 41.519531 287.800781 19.0625 279.402344 18.644531 C 271 18.21875 280.3125 50.214844 280.3125 50.214844" fill="#1f324e"/></g><g><path d="M 280.3125 50.214844 L 268.03125 58.859375 C 268.03125 58.859375 298.121094 65.03125 308.601562 65.03125 C 319.085938 65.03125 328.617188 56.984375 328.617188 56.984375 L 280.3125 50.214844" fill="#111e2d"/></g><g><path d="M 278.8125 44.496094 C 279.636719 47.882812 280.3125 50.214844 280.3125 50.214844 L 342.015625 58.859375 C 342.015625 58.859375 343.023438 58.402344 344.394531 57.625 L 278.8125 44.496094" fill="#ea7b20"/></g><g><path d="M 287.773438 33.773438 L 278.8125 31.679688 C 278.8125 31.679688 279.046875 33.773438 279.894531 34.644531 L 288.351562 38.59375 L 287.773438 33.773438" fill="#ea7b20"/></g><g><path d="M 291.625 34.585938 L 300.582031 32.488281 C 300.582031 32.488281 300.347656 34.585938 299.503906 35.453125 L 291.046875 39.402344 L 291.625 34.585938" fill="#ea7b20"/></g><g><path d="M 293.066406 36.757812 C 293.066406 38.660156 291.523438 40.199219 289.621094 40.199219 C 287.71875 40.199219 286.175781 38.660156 286.175781 36.757812 C 286.175781 34.855469 287.71875 33.3125 289.621094 33.3125 C 291.523438 33.3125 293.066406 34.855469 293.066406 36.757812" fill="#ea7b20"/></g><g clip-path="url(#d)"><path d="M 266.144531 425.199219 L 266.574219 424.023438 L 250.359375 414.703125 C 250.359375 414.703125 248.5625 418.929688 245.972656 425.199219 L 266.144531 425.199219" fill="#f79375"/></g><g><path d="M 299.246094 287.839844 C 299.246094 287.839844 294.234375 311.96875 297.066406 332.023438 C 299.894531 352.085938 293.289062 394.859375 289.824219 397.695312 C 286.363281 400.523438 350.335938 399.75 350.335938 399.75 C 350.335938 399.75 364.242188 360.574219 352.351562 327.542969 L 299.246094 287.839844" fill="#1d1416"/></g><g clip-path="url(#e)"><path d="M 369.976562 425.199219 C 372.855469 403.878906 375.195312 381.242188 372.792969 377.402344 C 368.078125 369.855469 359.285156 366.5625 359.285156 366.5625 L 343.476562 425.199219 L 369.976562 425.199219" fill="#0e1321"/></g><g><path d="M 350.949219 361.105469 C 345.140625 358.734375 339.875 356.164062 339.785156 354.609375 C 339.785156 354.609375 337.757812 334.121094 336.566406 322.269531 C 336.210938 318.703125 314.757812 306.609375 314.757812 306.609375 C 314.757812 306.609375 314.039062 342.558594 308.484375 354.921875 C 308.484375 354.921875 302.109375 356.917969 292.4375 360.148438 L 292.4375 393.726562 L 350.949219 393.726562 L 350.949219 361.105469" fill="#e4846c"/></g><g><path d="M 314.558594 312.445312 C 314.371094 316.703125 314.03125 322.839844 313.421875 329.265625 C 318.183594 338.992188 330.695312 361.898438 340.070312 355.261719 C 339.898438 355.03125 339.789062 354.8125 339.785156 354.609375 C 339.785156 354.609375 338.421875 340.804688 337.269531 329.296875 L 316.34375 311.828125 L 314.558594 312.445312" fill="#d26758"/></g><g clip-path="url(#f)"><path d="M 379.742188 425.199219 C 379.199219 419.144531 377.28125 414.367188 377.28125 414.367188 C 377.28125 414.367188 365.050781 372.609375 359.285156 366.5625 C 356.75 363.90625 350.949219 360.429688 340.257812 355.488281 C 340.257812 355.488281 345.085938 360.898438 333.488281 379.9375 C 333.488281 379.9375 322.480469 378.65625 308.484375 354.921875 C 308.484375 354.921875 265.59375 363.292969 266.589844 378.648438 C 266.589844 378.648438 268.585938 407.441406 273.171875 425.199219 L 379.742188 425.199219" fill="#151c35"/></g><g><path d="M 344.992188 345.167969 C 344.992188 345.167969 343.039062 346.398438 338.992188 345.414062 C 335.585938 344.59375 317.878906 333.289062 314.390625 319.351562 C 314.390625 319.351562 309.164062 320.222656 306.984375 313.691406 C 304.800781 307.15625 307.636719 298.019531 314.488281 304.117188 C 314.488281 304.117188 312.648438 275.371094 325.273438 273.628906 C 337.90625 271.890625 362.054688 267.578125 363.167969 288 C 363.167969 288 363.574219 306.277344 360.101562 321.683594 C 360.101562 321.683594 356.40625 334.453125 344.992188 345.167969" fill="#f79375"/></g><g><path d="M 363.183594 289.785156 C 364.65625 285.316406 364.039062 277.5625 360.113281 272.023438 C 351.984375 260.535156 322.601562 247.652344 305.871094 270.152344 C 293.675781 286.550781 299.71875 313.621094 306.984375 320.769531 C 312.871094 326.546875 308.917969 330.109375 310.039062 333.226562 C 310.820312 335.386719 311.640625 335.617188 312.371094 335.496094 C 313.011719 330.175781 314.460938 324.496094 314.644531 320.265625 C 314.554688 319.964844 314.472656 319.660156 314.390625 319.351562 C 314.390625 319.351562 309.164062 320.222656 306.984375 313.691406 C 304.835938 307.257812 307.558594 298.300781 314.1875 303.859375 C 314.773438 304.679688 315.433594 305.492188 316.019531 305.855469 C 317.445312 306.730469 323.769531 300.488281 322.210938 294.390625 C 322.210938 294.390625 339.519531 296.066406 353.433594 276.910156 C 353.433594 276.910156 361.097656 284.734375 363.183594 289.785156" fill="#1d1416"/></g><g clip-path="url(#g)"><path d="M 271.675781 425.199219 L 273.019531 423.09375 C 273.019531 423.09375 286.285156 385.332031 270.917969 369.964844 C 270.917969 369.964844 250.460938 392.90625 232.601562 425.199219 L 271.675781 425.199219" fill="#151c35"/></g><g><path d="M 332.816406 380.820312 C 332.816406 380.820312 338.449219 368.269531 340.070312 353.480469 C 340.070312 353.480469 340.457031 353.054688 341.261719 353.480469 C 342.066406 353.90625 344.609375 358.1875 344.609375 358.1875 L 347.578125 371.257812 L 339.898438 372.90625 L 341.8125 378.570312 L 333.960938 381.664062 L 332.816406 380.820312" fill="#395172"/></g><g><path d="M 310 349.765625 C 310 349.765625 323.539062 358.726562 333.960938 380.820312 L 317.070312 379.554688 L 316.507812 370.558594 L 303.5 368.355469 L 303.5 356.394531 C 303.5 356.394531 308.535156 348.644531 310 349.765625" fill="#395172"/></g><g><path d="M 362.648438 270.929688 L 301.222656 279.535156 C 301.222656 279.535156 288.660156 266.425781 293.574219 260.941406 C 298.492188 255.460938 355.511719 235.382812 363.871094 234.960938 C 372.234375 234.539062 362.648438 270.929688 362.648438 270.929688" fill="#151c35"/></g><g><path d="M 362.648438 270.929688 L 374.875 279.535156 C 374.875 279.535156 344.925781 285.679688 334.484375 285.679688 C 324.050781 285.679688 314.5625 277.667969 314.5625 277.667969 L 362.648438 270.929688" fill="#0a0e14"/></g><g><path d="M 364.144531 265.234375 C 363.324219 268.605469 362.648438 270.929688 362.648438 270.929688 L 301.222656 279.535156 C 301.222656 279.535156 300.222656 278.246094 298.855469 277.476562 L 364.144531 265.234375" fill="#ea7b20"/></g><g><path d="M 353.992188 244.175781 C 353.992188 244.175781 361.675781 249.519531 363.265625 250.257812 C 363.265625 250.257812 361.546875 260.015625 353.992188 263.335938 C 346.441406 260.015625 344.71875 250.257812 344.71875 250.257812 C 346.3125 249.519531 353.992188 244.175781 353.992188 244.175781" fill="#ea7b20"/></g><g clip-path="url(#h)"><path d="M 323.207031 425.199219 C 326.585938 419.726562 327.578125 414.183594 327.578125 414.183594 C 325.148438 413.054688 313.421875 404.902344 313.421875 404.902344 C 313.421875 404.902344 301.691406 413.054688 299.261719 414.183594 C 299.261719 414.183594 300.253906 419.726562 303.628906 425.199219 L 323.207031 425.199219" fill="#ea7b20"/></g><g><path d="M 379.527344 416.980469 L 355.066406 416.980469 L 355.066406 411.074219 L 379.527344 411.074219 L 379.527344 416.980469" fill="#ea7b20"/></g><g><path d="M 336.820312 391.035156 C 336.820312 391.828125 336.179688 392.46875 335.390625 392.46875 C 334.601562 392.46875 333.960938 391.828125 333.960938 391.035156 C 333.960938 390.246094 334.601562 389.605469 335.390625 389.605469 C 336.179688 389.605469 336.820312 390.246094 336.820312 391.035156" fill="#96ddf8"/></g><g><path d="M 342.9375 409.425781 C 342.9375 410.21875 342.296875 410.855469 341.503906 410.855469 C 340.714844 410.855469 340.070312 410.21875 340.070312 409.425781 C 340.070312 408.640625 340.714844 407.996094 341.503906 407.996094 C 342.296875 407.996094 342.9375 408.640625 342.9375 409.425781" fill="#96ddf8"/></g><g><path d="M 154.800781 212.273438 C 151.9375 190.496094 150.160156 175.664062 150.160156 175.664062 C 149.285156 168.039062 134.601562 164.867188 134.601562 164.867188 C 129.972656 164.929688 130.75 185.636719 133.730469 212.273438 L 154.800781 212.273438" fill="#a7c0e7"/></g><g><path d="M 132.660156 164.214844 C 127.800781 162.226562 123.402344 160.078125 123.328125 158.777344 C 123.328125 158.777344 121.636719 141.660156 120.640625 131.757812 C 120.34375 128.777344 102.417969 118.671875 102.417969 118.671875 C 102.417969 118.671875 101.8125 148.710938 97.175781 159.039062 C 97.175781 159.039062 91.847656 160.707031 83.769531 163.40625 L 83.769531 191.464844 L 132.660156 191.464844 L 132.660156 164.214844" fill="#e4846c"/></g><g><path d="M 155.769531 212.273438 C 155.21875 210.105469 154.660156 208.710938 154.660156 208.710938 C 154.660156 208.710938 144.441406 173.824219 139.628906 168.765625 C 137.511719 166.550781 132.660156 163.644531 123.726562 159.515625 C 123.726562 159.515625 123.574219 164.867188 117.804688 170.449219 C 117.804688 170.449219 108.871094 178.871094 97.171875 159.039062 C 97.171875 159.039062 61.335938 166.035156 62.175781 178.863281 C 62.175781 178.863281 63.476562 197.664062 66.425781 212.273438 L 155.769531 212.273438" fill="#cbdaf2"/></g><g><path d="M 102.253906 123.546875 C 102.101562 127.105469 101.808594 132.234375 101.304688 137.605469 C 105.28125 145.730469 115.734375 164.867188 123.574219 159.324219 C 123.429688 159.132812 123.339844 158.945312 123.328125 158.777344 C 123.328125 158.777344 122.191406 147.246094 121.230469 137.632812 L 103.742188 123.03125 L 102.253906 123.546875" fill="#d26758"/></g><g><path d="M 127.683594 150.890625 C 127.683594 150.890625 126.054688 151.917969 122.679688 151.097656 C 119.824219 150.410156 105.023438 140.964844 102.113281 129.320312 C 102.113281 129.320312 97.75 130.050781 95.929688 124.589844 C 94.105469 119.132812 96.472656 111.492188 102.191406 116.589844 C 102.191406 116.589844 100.660156 92.570312 111.203125 91.113281 C 121.765625 89.660156 141.9375 86.058594 142.867188 103.121094 C 142.867188 103.121094 143.207031 118.394531 140.308594 131.269531 C 140.308594 131.269531 137.226562 141.9375 127.683594 150.890625" fill="#f79375"/></g><g><path d="M 142.882812 104.617188 C 144.121094 100.882812 143.597656 94.402344 140.320312 89.777344 C 133.527344 80.175781 108.972656 69.40625 94.992188 88.207031 C 84.800781 101.910156 89.851562 124.53125 95.929688 130.503906 C 100.84375 135.332031 97.539062 138.3125 98.476562 140.910156 C 99.128906 142.714844 100.082031 143.328125 100.691406 143.222656 C 101.222656 138.78125 102.171875 133.621094 102.320312 130.085938 C 102.253906 129.832031 102.179688 129.578125 102.113281 129.320312 C 102.113281 129.320312 97.75 130.050781 95.929688 124.589844 C 94.132812 119.21875 96.40625 111.726562 101.941406 116.375 C 102.425781 117.0625 102.984375 117.738281 103.476562 118.039062 C 104.664062 118.773438 116.859375 117.269531 121.933594 111.9375 C 121.933594 111.9375 134.253906 103.980469 137.933594 92.957031 C 137.933594 92.957031 140.515625 95.476562 142.882812 104.617188" fill="#18100f"/></g><g><path d="M 78.390625 212.273438 C 81.371094 185.636719 82.148438 164.929688 77.519531 164.867188 C 77.519531 164.867188 62.835938 168.039062 61.960938 175.664062 C 61.960938 175.664062 60.183594 190.496094 57.320312 212.273438 L 78.390625 212.273438" fill="#cbdaf2"/></g><g><path d="M 137.933594 88.199219 L 95.355469 88.199219 L 99.640625 46.789062 L 135.347656 46.789062 L 137.933594 88.199219" fill="#cbdaf2"/></g><g><path d="M 90.542969 57.144531 C 90.542969 57.144531 100.488281 59.96875 111.039062 53.382812 C 111.039062 53.382812 119.019531 58.085938 126.894531 53.382812 C 126.894531 53.382812 143.238281 62.082031 150.53125 53.382812 C 157.824219 44.675781 153.640625 18.5625 116.917969 16.914062 C 80.191406 15.269531 78.542969 40.914062 79.25 43.5 C 79.957031 46.085938 81.367188 54.085938 90.542969 57.144531" fill="#addef6"/></g><g><path d="M 95.324219 160.316406 L 98.085938 151.417969 L 98.746094 151.121094 C 98.746094 151.121094 112.511719 158.984375 113.742188 161.101562 C 114.980469 163.21875 116.332031 173.273438 116.332031 173.273438 C 116.332031 173.273438 99.140625 174.53125 95.324219 160.316406" fill="#cbdaf2"/></g><g><path d="M 116.289062 172.976562 C 116.289062 172.976562 117.183594 162.6875 117.539062 161.71875 C 117.890625 160.75 123.574219 153.070312 123.574219 153.070312 L 124.242188 153.070312 L 126.449219 161.1875 C 126.449219 161.1875 120.953125 170.292969 116.289062 172.976562" fill="#cbdaf2"/></g><g><path d="M 112.441406 185.324219 C 112.441406 186.492188 111.492188 187.441406 110.324219 187.441406 C 109.160156 187.441406 108.214844 186.492188 108.214844 185.324219 C 108.214844 184.160156 109.160156 183.21875 110.324219 183.21875 C 111.492188 183.21875 112.441406 184.160156 112.441406 185.324219" fill="#e02734"/></g><g><path d="M 128.5625 185.324219 C 128.5625 186.492188 127.613281 187.441406 126.449219 187.441406 C 125.28125 187.441406 124.335938 186.492188 124.335938 185.324219 C 124.335938 184.160156 125.28125 183.21875 126.449219 183.21875 C 127.613281 183.21875 128.5625 184.160156 128.5625 185.324219" fill="#e02734"/></g><g><path d="M 116.664062 203.074219 C 116.664062 204.242188 115.71875 205.191406 114.550781 205.191406 C 113.386719 205.191406 112.441406 204.242188 112.441406 203.074219 C 112.441406 201.910156 113.386719 200.964844 114.550781 200.964844 C 115.71875 200.964844 116.664062 201.910156 116.664062 203.074219" fill="#e02734"/></g><g><path d="M 132.785156 203.074219 C 132.785156 204.242188 131.839844 205.191406 130.671875 205.191406 C 129.507812 205.191406 128.5625 204.242188 128.5625 203.074219 C 128.5625 201.910156 129.507812 200.964844 130.671875 200.964844 C 131.839844 200.964844 132.785156 201.910156 132.785156 203.074219" fill="#e02734"/></g><g><path d="M 102.546875 257.53125 C 102.546875 257.53125 80.839844 244.316406 72.125 260.8125 C 63.773438 276.621094 64.074219 293.316406 68.546875 312.398438 C 71.78125 326.199219 77.121094 378.617188 49.679688 367.882812 C 49.679688 367.882812 77.289062 384.269531 84.949219 358.34375 C 99.273438 309.84375 74.878906 261.410156 98.515625 259.914062 L 102.546875 257.53125" fill="#1d1416"/></g><g clip-path="url(#i)"><path d="M 164.457031 425.199219 C 167.890625 385.339844 163.242188 364.601562 163.242188 364.601562 C 159.371094 356.398438 147.441406 351.664062 147.441406 351.664062 L 141.425781 425.199219 L 164.457031 425.199219" fill="#f1485a"/></g><g><path d="M 139.539062 346.496094 C 134.023438 344.242188 129.035156 341.808594 128.949219 340.332031 C 128.949219 340.332031 127.03125 320.910156 125.898438 309.671875 C 125.5625 306.289062 105.226562 294.824219 105.226562 294.824219 C 105.226562 294.824219 104.539062 328.90625 99.277344 340.632812 C 99.277344 340.632812 93.230469 342.519531 84.0625 345.582031 L 84.0625 377.417969 L 139.539062 377.417969 L 139.539062 346.496094" fill="#e4846c"/></g><g clip-path="url(#j)"><path d="M 71.011719 425.199219 L 160.84375 425.199219 C 171.992188 415.613281 164.503906 396.988281 164.503906 396.988281 C 164.503906 396.988281 152.910156 357.398438 147.441406 351.664062 C 145.042969 349.144531 139.539062 345.851562 129.402344 341.164062 C 129.402344 341.164062 133.976562 346.296875 122.984375 364.34375 C 122.984375 364.34375 112.546875 363.132812 99.273438 340.632812 C 99.273438 340.632812 58.609375 348.566406 59.5625 363.121094 C 59.5625 363.121094 61.957031 397.800781 67.574219 413.09375 C 68.945312 416.828125 70.074219 420.964844 71.011719 425.199219" fill="#f1485a"/></g><g><path d="M 105.039062 300.355469 C 104.863281 304.394531 104.535156 310.214844 103.960938 316.304688 C 108.476562 325.527344 120.335938 347.242188 129.230469 340.953125 C 129.066406 340.730469 128.964844 340.523438 128.949219 340.332031 C 128.949219 340.332031 127.65625 327.242188 126.570312 316.339844 L 106.730469 299.769531 L 105.039062 300.355469" fill="#d26758"/></g><g><path d="M 133.890625 331.378906 C 133.890625 331.378906 132.046875 332.546875 128.210938 331.617188 C 124.976562 330.835938 108.179688 320.117188 104.878906 306.90625 C 104.878906 306.90625 99.921875 307.734375 97.859375 301.539062 C 95.792969 295.34375 98.476562 286.679688 104.96875 292.460938 C 104.96875 292.460938 103.230469 265.203125 115.195312 263.550781 C 127.175781 261.90625 150.066406 257.816406 151.121094 277.179688 C 151.121094 277.179688 151.507812 294.511719 148.21875 309.113281 C 148.21875 309.113281 144.71875 321.222656 133.890625 331.378906" fill="#f79375"/></g><g><path d="M 151.140625 278.878906 C 152.542969 274.636719 151.949219 267.285156 148.230469 262.035156 C 140.523438 251.140625 112.660156 238.925781 96.800781 260.257812 C 85.234375 275.804688 90.964844 301.472656 97.859375 308.246094 C 103.4375 313.730469 99.683594 317.109375 100.753906 320.058594 C 101.492188 322.105469 102.269531 322.328125 102.964844 322.210938 C 103.566406 317.164062 104.945312 311.78125 105.113281 307.769531 C 105.039062 307.484375 104.949219 307.199219 104.878906 306.90625 C 104.878906 306.90625 99.921875 307.734375 97.859375 301.539062 C 95.824219 295.441406 98.402344 286.945312 104.683594 292.21875 C 105.230469 292.996094 105.863281 293.765625 106.421875 294.105469 C 107.769531 294.9375 113.78125 289.019531 112.289062 283.234375 C 112.289062 283.234375 128.707031 284.832031 141.894531 266.667969 C 141.894531 266.667969 149.160156 274.085938 151.140625 278.878906" fill="#1d1416"/></g><g clip-path="url(#k)"><path d="M 74.070312 425.199219 C 80.800781 392.484375 87.757812 347.410156 75 347.238281 C 75 347.238281 60.535156 349.394531 59.542969 358.042969 L 45.167969 425.199219 L 74.070312 425.199219" fill="#f1485a"/></g><g clip-path="url(#l)"><path d="M 96.117188 425.199219 L 153.1875 425.199219 C 152.972656 405.386719 152.632812 390.605469 152.632812 390.605469 L 97.175781 390.605469 C 97.785156 399.015625 97.253906 411.394531 96.117188 425.199219" fill="#688ed1"/></g><g><path d="M 86.84375 343.792969 C 86.84375 343.792969 99.539062 373.867188 97.324219 405.128906 L 105.394531 405.128906 C 105.394531 405.128906 107.554688 371.980469 94.34375 341.742188 L 86.84375 343.792969" fill="#688ed1"/></g><g><path d="M 152.632812 392.4375 C 152.632812 392.4375 152.550781 358.546875 143.183594 348.363281 L 138.984375 345.914062 C 138.984375 345.914062 148.101562 370.289062 147.710938 392.4375 L 152.632812 392.4375" fill="#688ed1"/></g><g><path d="M 89.425781 269.347656 C 89.417969 269.046875 89.402344 268.746094 89.402344 268.445312 C 89.402344 250.253906 104.152344 235.503906 122.34375 235.503906 C 140.535156 235.503906 155.28125 250.253906 155.28125 268.445312 C 155.28125 268.746094 155.265625 269.046875 155.257812 269.347656 L 89.425781 269.347656" fill="#ea7b20"/></g><g><path d="M 115.335938 267.011719 L 129.351562 267.011719 L 128.371094 234.597656 L 116.3125 234.597656 L 115.335938 267.011719" fill="#d1631c"/></g><g><path d="M 90.777344 265.261719 L 154.242188 265.261719 C 155.457031 265.261719 156.449219 266.253906 156.449219 267.464844 L 156.449219 271.03125 L 167.921875 276.152344 L 167.921875 276.6875 L 88.574219 276.6875 L 88.574219 267.464844 C 88.574219 266.253906 89.566406 265.261719 90.777344 265.261719" fill="#d1631c"/></g></g></svg>