<?xml version="1.0" encoding="UTF-8"?><svg xmlns="http://www.w3.org/2000/svg" xmlns:xlink="http://www.w3.org/1999/xlink" height="425.2" preserveAspectRatio="xMidYMid meet" version="1.0" viewBox="0.1 0.0 424.9 425.2" width="424.9" zoomAndPan="magnify"><defs><clipPath id="a"><path d="M 0 212 L 213 212 L 213 425.199219 L 0 425.199219 Z M 0 212"/></clipPath><clipPath id="b"><path d="M 212 0 L 425.199219 0 L 425.199219 213 L 212 213 Z M 212 0"/></clipPath><clipPath id="c"><path d="M 212 212 L 425.199219 212 L 425.199219 425.199219 L 212 425.199219 Z M 212 212"/></clipPath><clipPath id="d"><path d="M 240 354 L 296 354 L 296 425.199219 L 240 425.199219 Z M 240 354"/></clipPath><clipPath id="e"><path d="M 278 347 L 350 347 L 350 425.199219 L 278 425.199219 Z M 278 347"/></clipPath><clipPath id="f"><path d="M 294 375 L 311 375 L 311 425.199219 L 294 425.199219 Z M 294 375"/></clipPath><clipPath id="g"><path d="M 263 345 L 297 345 L 297 425.199219 L 263 425.199219 Z M 263 345"/></clipPath><clipPath id="h"><path d="M 306 345 L 387 345 L 387 425.199219 L 306 425.199219 Z M 306 345"/></clipPath><clipPath id="i"><path d="M 357 398 L 385 398 L 385 425.199219 L 357 425.199219 Z M 357 398"/></clipPath><clipPath id="j"><path d="M 307 339 L 348 339 L 348 425.199219 L 307 425.199219 Z M 307 339"/></clipPath><clipPath id="k"><path d="M 279 344 L 301 344 L 301 425.199219 L 279 425.199219 Z M 279 344"/></clipPath><clipPath id="l"><path d="M 348 356 L 397 356 L 397 425.199219 L 348 425.199219 Z M 348 356"/></clipPath><clipPath id="m"><path d="M 267 388 L 298 388 L 298 425.199219 L 267 425.199219 Z M 267 388"/></clipPath><clipPath id="n"><path d="M 291 403 L 297 403 L 297 425.199219 L 291 425.199219 Z M 291 403"/></clipPath><clipPath id="o"><path d="M 267 388 L 282 388 L 282 425.199219 L 267 425.199219 Z M 267 388"/></clipPath><clipPath id="p"><path d="M 326 410 L 347 410 L 347 425.199219 L 326 425.199219 Z M 326 410"/></clipPath><clipPath id="q"><path d="M 329 412 L 345 412 L 345 425.199219 L 329 425.199219 Z M 329 412"/></clipPath><clipPath id="r"><path d="M 331 414 L 343 414 L 343 425.199219 L 331 425.199219 Z M 331 414"/></clipPath><clipPath id="s"><path d="M 142 355 L 164 355 L 164 425.199219 L 142 425.199219 Z M 142 355"/></clipPath><clipPath id="t"><path d="M 39 339 L 157 339 L 157 425.199219 L 39 425.199219 Z M 39 339"/></clipPath><clipPath id="u"><path d="M 66 341 L 76 341 L 76 425.199219 L 66 425.199219 Z M 66 341"/></clipPath><clipPath id="v"><path d="M 137 352 L 148 352 L 148 425.199219 L 137 425.199219 Z M 137 352"/></clipPath><clipPath id="w"><path d="M 25 346 L 65 346 L 65 425.199219 L 25 425.199219 Z M 25 346"/></clipPath><clipPath id="x"><path d="M 134 414 L 143 414 L 143 425.199219 L 134 425.199219 Z M 134 414"/></clipPath><clipPath id="y"><path d="M 134 407 L 147 407 L 147 425.199219 L 134 425.199219 Z M 134 407"/></clipPath><clipPath id="z"><path d="M 137 403 L 149 403 L 149 425.199219 L 137 425.199219 Z M 137 403"/></clipPath><clipPath id="A"><path d="M 151 404 L 164 404 L 164 425.199219 L 151 425.199219 Z M 151 404"/></clipPath><clipPath id="B"><path d="M 155 411 L 164 411 L 164 425.199219 L 155 425.199219 Z M 155 411"/></clipPath><clipPath id="C"><path d="M 159 416 L 167 416 L 167 425.199219 L 159 425.199219 Z M 159 416"/></clipPath><clipPath id="D"><path d="M 115 415 L 125 415 L 125 425.199219 L 115 425.199219 Z M 115 415"/></clipPath><clipPath id="E"><path d="M 124 411 L 128 411 L 128 425.199219 L 124 425.199219 Z M 124 411"/></clipPath><clipPath id="F"><path d="M 131 417 L 133 417 L 133 425.199219 L 131 425.199219 Z M 131 417"/></clipPath><clipPath id="G"><path d="M 129 414 L 131 414 L 131 425.199219 L 129 425.199219 Z M 129 414"/></clipPath><clipPath id="H"><path d="M 159 415 L 162 415 L 162 425.199219 L 159 425.199219 Z M 159 415"/></clipPath><clipPath id="I"><path d="M 161 413 L 165 413 L 165 425.199219 L 161 425.199219 Z M 161 413"/></clipPath><clipPath id="J"><path d="M 164 408 L 167 408 L 167 425.199219 L 164 425.199219 Z M 164 408"/></clipPath><clipPath id="K"><path d="M 169 414 L 185 414 L 185 425.199219 L 169 425.199219 Z M 169 414"/></clipPath><clipPath id="L"><path d="M 171 417 L 183 417 L 183 425.199219 L 171 425.199219 Z M 171 417"/></clipPath></defs><g><g><path d="M 0.144531 212.800781 L 212.945312 212.800781 L 212.945312 0 L 0.144531 0 Z M 0.144531 212.800781" fill="#41a0d6"/></g><g clip-path="url(#a)"><path d="M 0.144531 425.199219 L 212.945312 425.199219 L 212.945312 212.398438 L 0.144531 212.398438 Z M 0.144531 425.199219" fill="#ee9d2b"/></g><g clip-path="url(#b)"><path d="M 425.054688 212.800781 L 212.257812 212.800781 L 212.257812 0 L 425.054688 0 L 425.054688 212.800781" fill="#4a41a1"/></g><g clip-path="url(#c)"><path d="M 212.257812 425.199219 L 425.054688 425.199219 L 425.054688 212.398438 L 212.257812 212.398438 Z M 212.257812 425.199219" fill="#34baa5"/></g><g clip-path="url(#d)"><path d="M 289.460938 425.199219 L 295.710938 390.523438 C 287.585938 343.03125 268.035156 356.015625 268.035156 356.015625 C 265.011719 357.863281 251.015625 396.324219 240.597656 425.199219 L 289.460938 425.199219" fill="#88b7dc"/></g><g><path d="M 275.527344 386.328125 C 276.179688 380.488281 277 359.632812 278.046875 358.179688 C 278.046875 358.179688 296.628906 354.167969 298.15625 350.867188 C 300.550781 345.78125 303.9375 330.492188 304.820312 315.511719 C 305.054688 311.78125 331.910156 295.410156 331.910156 295.410156 C 331.910156 295.410156 331.347656 331.257812 339.53125 347.464844 C 339.53125 347.464844 367.121094 351.484375 373.324219 357.695312 C 374.9375 359.304688 376.222656 362.433594 377.070312 366.527344 L 275.527344 386.328125" fill="#e4846c"/></g><g><path d="M 299.269531 347.980469 C 301.367188 341.636719 303.796875 329.636719 304.699219 317.503906 L 327.144531 302.300781 L 331.964844 302.300781 C 332.085938 306.550781 332.347656 312.371094 332.949219 318.609375 C 328.027344 329.429688 314.496094 355.011719 299.269531 347.980469" fill="#d26758"/></g><g clip-path="url(#e)"><path d="M 349.535156 425.199219 L 340.226562 347.488281 C 340.226562 347.488281 311.183594 361.90625 308.355469 361.511719 C 305.785156 361.144531 300.605469 356.160156 296.863281 350.710938 L 289.171875 353.675781 L 278.351562 425.199219 L 349.535156 425.199219" fill="#6a9fda"/></g><g clip-path="url(#f)"><path d="M 310.863281 425.199219 L 310.210938 375.847656 L 302.867188 376.507812 L 294.070312 425.199219 L 310.863281 425.199219" fill="#1d2e45"/></g><g><path d="M 301.503906 365.269531 L 302.9375 377.0625 L 310.320312 378.824219 L 314.515625 369.234375 L 309.003906 361.453125 L 307.128906 361.453125 L 301.503906 365.269531" fill="#1d2e45"/></g><g><path d="M 308.355469 361.511719 L 295.445312 381.769531 L 293.0625 353.695312 L 295.273438 350.867188 L 308.355469 361.511719" fill="#6a9fda"/></g><g><path d="M 308.355469 361.511719 L 320.1875 384.601562 L 332.949219 351.039062 C 332.949219 351.039062 320.015625 355.738281 308.355469 361.511719" fill="#6a9fda"/></g><g clip-path="url(#g)"><path d="M 263.722656 425.199219 L 295.90625 425.199219 C 294.679688 395.683594 294.082031 369.050781 296.675781 345.210938 L 279.539062 349.199219 C 260.902344 351.6875 263.722656 376.476562 263.722656 376.476562 L 263.722656 425.199219" fill="#c2def5"/></g><g clip-path="url(#h)"><path d="M 382.910156 425.199219 C 390.371094 378.644531 384.320312 357.011719 384.320312 357.011719 C 377.070312 352.90625 344.90625 345.9375 338.902344 345.660156 C 338.902344 345.660156 320.738281 374.414062 306.207031 425.199219 L 382.910156 425.199219" fill="#c2def5"/></g><g clip-path="url(#i)"><path d="M 382.855469 425.199219 C 383.429688 421.523438 383.914062 418.019531 384.320312 414.679688 C 382.320312 409.984375 380.664062 405.394531 381.535156 398.507812 L 371.339844 399.15625 L 357.933594 425.199219 L 382.855469 425.199219" fill="#84b2d7"/></g><g><path d="M 280.402344 273.035156 C 280.402344 273.035156 278.058594 289.863281 281.214844 306.234375 C 283.085938 315.910156 293.171875 329.957031 299.304688 332.617188 C 299.304688 332.617188 300.96875 333.574219 306.980469 332.585938 C 314.375 331.363281 327.570312 320.6875 331.199219 306.152344 C 331.199219 306.152344 334.730469 307.5625 337.238281 300.851562 C 340.050781 293.296875 337.941406 282.984375 330.792969 289.34375 C 330.792969 289.34375 333.117188 259.847656 319.949219 258.023438 C 306.769531 256.210938 281.566406 251.722656 280.402344 273.035156" fill="#f79375"/></g><g clip-path="url(#j)"><path d="M 325.75 425.199219 L 332.949219 413.015625 L 326.523438 403.019531 L 347.789062 398.554688 C 347.789062 398.554688 346.070312 354.113281 344.472656 347.710938 L 339.65625 340.433594 L 336.597656 339.714844 C 336.597656 339.714844 319.503906 377.332031 307.136719 425.199219 L 325.75 425.199219" fill="#96ddf8"/></g><g clip-path="url(#k)"><path d="M 286.015625 418.507812 C 286.324219 420.820312 286.648438 423.042969 286.980469 425.199219 L 296.921875 425.199219 C 296.429688 385.132812 300.386719 344.144531 300.386719 344.144531 L 296.675781 345.210938 L 292.003906 351.445312 C 288.871094 360.707031 279.574219 395.804688 279.574219 395.804688 L 290.078125 406.382812 L 286.015625 418.507812" fill="#96ddf8"/></g><g clip-path="url(#l)"><path d="M 385.507812 425.199219 L 390.378906 413.40625 C 408.851562 358.855469 381.070312 356.085938 381.070312 356.085938 C 372.160156 354.097656 358.085938 394.101562 348.570312 425.199219 L 385.507812 425.199219" fill="#96ddf8"/></g><g><path d="M 339.019531 249.746094 C 333.964844 243.625 298.046875 223.074219 283.449219 242.695312 C 275.304688 253.644531 279.648438 282.8125 279.648438 282.8125 C 279.640625 273.546875 283.046875 264.050781 283.046875 264.050781 C 284.535156 265.113281 293.0625 266.257812 293.0625 266.257812 C 298.398438 268.214844 318.808594 262.761719 320.652344 262.761719 C 322.492188 262.761719 322.117188 266.511719 322.238281 273.785156 C 322.328125 279.128906 325.007812 285.269531 326.425781 288.148438 C 326.671875 288.699219 326.933594 289.214844 327.203125 289.660156 C 327.25 289.753906 327.28125 289.808594 327.28125 289.808594 L 327.289062 289.800781 C 328.167969 291.203125 329.078125 291.984375 329.609375 291.660156 C 330.230469 291.28125 330.914062 290.453125 331.519531 289.578125 C 337.132812 283.195312 339.859375 293.546875 337.558594 299.285156 C 334.304688 307.386719 331.304688 305.746094 331.304688 305.746094 C 331.230469 306.078125 331.117188 306.398438 331.039062 306.71875 C 331.230469 308.800781 332.429688 312.183594 332.429688 312.183594 C 333.347656 312.136719 336.410156 303.914062 336.410156 303.914062 C 339.449219 295.105469 343.394531 289.976562 343.851562 278.847656 C 343.851562 278.847656 345.726562 257.894531 339.019531 249.746094" fill="#18100f"/></g><g><path d="M 275.167969 286.355469 L 275.742188 287.296875 L 275.414062 286.761719 L 275.734375 287.300781 L 275.742188 287.296875 L 275.414062 286.761719 L 275.734375 287.300781 L 275.820312 287.253906 C 276.242188 287.039062 278.175781 286.15625 281.800781 286.152344 C 283.9375 286.152344 286.664062 286.464844 290.015625 287.414062 L 290.316406 286.355469 L 289.234375 286.570312 L 289.234375 286.574219 C 289.25 286.644531 289.425781 287.582031 289.421875 288.832031 C 289.429688 290.339844 289.15625 292.277344 288.199219 293.714844 C 287.722656 294.4375 287.089844 295.050781 286.1875 295.511719 C 285.285156 295.964844 284.09375 296.269531 282.488281 296.269531 C 282.488281 296.269531 282.441406 296.265625 282.351562 296.273438 L 282.429688 297.371094 L 282.433594 296.269531 C 280.953125 296.261719 279.847656 295.988281 279.007812 295.578125 C 277.761719 294.957031 277.039062 294.023438 276.574219 292.902344 C 276.113281 291.785156 275.960938 290.492188 275.964844 289.367188 C 275.964844 288.578125 276.035156 287.875 276.105469 287.375 C 276.140625 287.125 276.175781 286.925781 276.203125 286.792969 L 276.234375 286.644531 L 276.238281 286.613281 L 276.242188 286.609375 L 275.167969 286.355469 L 275.742188 287.296875 L 275.167969 286.355469 L 274.097656 286.101562 C 274.085938 286.152344 273.761719 287.523438 273.757812 289.367188 C 273.765625 291.113281 274.039062 293.316406 275.3125 295.199219 C 275.949219 296.136719 276.851562 296.972656 278.035156 297.554688 C 279.222656 298.140625 280.675781 298.46875 282.421875 298.472656 L 282.507812 298.472656 L 282.460938 297.84375 L 282.464844 298.472656 L 282.507812 298.472656 L 282.460938 297.84375 L 282.464844 298.472656 L 282.488281 298.472656 C 284.367188 298.472656 285.925781 298.113281 287.183594 297.476562 C 289.078125 296.523438 290.222656 294.953125 290.84375 293.367188 C 291.472656 291.773438 291.625 290.140625 291.628906 288.832031 C 291.628906 287.285156 291.40625 286.183594 291.394531 286.136719 L 291.261719 285.476562 L 290.617188 285.292969 C 287.082031 284.289062 284.148438 283.949219 281.800781 283.949219 C 277.09375 283.949219 274.738281 285.324219 274.597656 285.414062 L 274.203125 285.652344 L 274.097656 286.101562 L 275.167969 286.355469" fill="#18100f"/></g><g><path d="M 298.277344 286.390625 L 298.851562 287.332031 L 298.539062 286.820312 L 298.84375 287.335938 L 298.851562 287.332031 L 298.539062 286.820312 L 298.84375 287.335938 C 298.84375 287.335938 298.964844 287.265625 299.214844 287.15625 C 299.972656 286.824219 301.894531 286.15625 305.085938 286.15625 C 307.28125 286.15625 310.085938 286.472656 313.527344 287.449219 L 313.828125 286.390625 L 312.75 286.605469 L 312.75 286.609375 C 312.765625 286.6875 312.945312 287.648438 312.941406 288.9375 C 312.949219 290.488281 312.667969 292.480469 311.683594 293.964844 C 311.1875 294.710938 310.535156 295.34375 309.605469 295.816406 C 308.671875 296.285156 307.445312 296.597656 305.796875 296.597656 L 305.679688 296.601562 L 305.730469 297.703125 L 305.734375 296.601562 C 304.210938 296.59375 303.070312 296.3125 302.207031 295.886719 C 300.917969 295.246094 300.171875 294.28125 299.691406 293.128906 C 299.21875 291.976562 299.0625 290.644531 299.0625 289.484375 C 299.0625 288.671875 299.136719 287.949219 299.210938 287.433594 C 299.246094 287.175781 299.285156 286.972656 299.3125 286.835938 L 299.34375 286.683594 L 299.351562 286.648438 L 299.351562 286.644531 L 298.277344 286.390625 L 298.851562 287.332031 L 298.277344 286.390625 L 297.207031 286.136719 C 297.195312 286.1875 296.859375 287.597656 296.859375 289.484375 C 296.863281 291.273438 297.148438 293.53125 298.449219 295.457031 C 299.101562 296.414062 300.019531 297.269531 301.234375 297.863281 C 302.445312 298.460938 303.933594 298.796875 305.722656 298.804688 L 305.796875 298.804688 C 307.71875 298.804688 309.3125 298.433594 310.597656 297.785156 C 312.535156 296.808594 313.710938 295.207031 314.347656 293.582031 C 314.988281 291.949219 315.144531 290.277344 315.148438 288.9375 C 315.148438 287.351562 314.917969 286.21875 314.910156 286.171875 L 314.777344 285.511719 L 314.132812 285.328125 C 310.503906 284.300781 307.496094 283.949219 305.085938 283.949219 C 300.261719 283.949219 297.847656 285.359375 297.707031 285.445312 L 297.3125 285.6875 L 297.207031 286.136719 L 298.277344 286.390625" fill="#18100f"/></g><g><path d="M 291.015625 288.960938 L 290.875 288.832031 L 291.015625 288.964844 L 291.015625 288.960938 L 290.875 288.832031 L 291.015625 288.964844 C 291.027344 288.953125 291.355469 288.605469 291.921875 288.273438 C 292.488281 287.941406 293.289062 287.625 294.273438 287.625 C 295.292969 287.628906 296.535156 287.953125 298.011719 289.046875 L 298.804688 287.988281 C 297.144531 286.75 295.589844 286.300781 294.273438 286.300781 C 292.957031 286.300781 291.902344 286.742188 291.183594 287.175781 C 290.464844 287.609375 290.070312 288.039062 290.039062 288.070312 L 291.015625 288.964844" fill="#18100f"/></g><g><path d="M 314 289.175781 L 330.8125 290.382812 L 330.90625 289.066406 L 314.09375 287.859375" fill="#18100f"/></g><g><path d="M 271.554688 400.5625 L 272.878906 400.519531 L 273.007812 400.269531 C 273.734375 398.820312 276.796875 397.667969 280.574219 397.242188 C 285.339844 397.089844 289.644531 398.105469 290.714844 399.765625 L 290.859375 399.988281 L 292.3125 399.941406 C 292.136719 399.414062 291.980469 398.878906 291.835938 398.339844 C 290.011719 397.253906 286.605469 396.628906 282.917969 396.726562 L 282.71875 396.714844 C 278.53125 396.550781 274.480469 397.324219 272.269531 398.574219 C 272.144531 399.269531 271.886719 399.933594 271.554688 400.5625" fill="#242e43"/></g><g><path d="M 273.339844 399.792969 L 273.410156 399.347656 C 274.558594 398.167969 277.285156 397.253906 280.566406 396.886719 C 280.894531 396.875 281.21875 396.867188 281.542969 396.867188 C 285.46875 396.867188 288.941406 397.671875 290.320312 398.960938 L 290.433594 399.414062 C 289.121094 398.070312 285.5625 397.226562 281.523438 397.226562 C 281.347656 397.226562 281.171875 397.226562 280.992188 397.230469 C 280.855469 397.234375 280.714844 397.238281 280.574219 397.242188 C 277.222656 397.621094 274.433594 398.570312 273.339844 399.792969" fill="#131823"/></g><g clip-path="url(#m)"><path d="M 271.726562 425.199219 C 270.484375 423.347656 269.886719 421.070312 270.269531 418.71875 L 273.726562 397.382812 C 274.320312 393.726562 276.546875 390.597656 281.65625 390.757812 C 285.980469 390.597656 288.769531 392.679688 289.824219 396.957031 L 294.996094 417.9375 C 295.636719 420.527344 295.058594 423.125 293.652344 425.199219 L 295.59375 425.199219 C 297.15625 423.039062 297.835938 420.25 297.148438 417.457031 L 291.847656 395.972656 C 290.777344 391.636719 286.859375 388.753906 282.578125 388.832031 L 282.394531 388.796875 C 277.277344 387.964844 272.457031 391.441406 271.632812 396.5625 L 268.089844 418.402344 C 267.6875 420.882812 268.3125 423.277344 269.625 425.199219 L 271.726562 425.199219" fill="#959796"/></g><g><path d="M 272.628906 404.164062 L 273.726562 397.382812 C 274.320312 393.726562 276.546875 390.597656 281.65625 390.757812 C 285.980469 390.597656 288.769531 392.679688 289.824219 396.957031 L 291.464844 403.601562 L 293.714844 403.535156 L 291.847656 395.972656 C 289.441406 388.78125 283.101562 388.789062 282.449219 388.796875 C 282.417969 388.796875 282.398438 388.796875 282.394531 388.796875 C 277.457031 388.097656 272.457031 391.441406 271.632812 396.5625 L 270.390625 404.230469 L 272.628906 404.164062" fill="#242e43"/></g><g><path d="M 295.195312 419.007812 C 295.152344 418.652344 295.085938 418.292969 294.996094 417.9375 L 291.464844 403.601562 L 294.996094 417.9375 C 295.085938 418.292969 295.152344 418.652344 295.195312 419.007812" fill="#7cb6cd"/></g><g clip-path="url(#n)"><path d="M 294.703125 425.199219 L 293.652344 425.199219 C 294.867188 423.410156 295.460938 421.234375 295.195312 419.007812 C 295.152344 418.652344 295.085938 418.292969 294.996094 417.9375 L 291.464844 403.601562 L 292.542969 403.570312 L 296.078125 417.910156 C 296.726562 420.515625 296.125 423.121094 294.703125 425.199219" fill="#7b7c7b"/></g><g><path d="M 291.464844 403.601562 L 289.824219 396.957031 C 288.808594 392.832031 286.183594 390.75 282.117188 390.75 C 281.964844 390.75 281.8125 390.753906 281.65625 390.757812 L 281.507812 390.753906 C 281.785156 390.734375 282.078125 390.71875 282.382812 390.71875 C 282.496094 390.71875 282.617188 390.722656 282.734375 390.726562 C 282.890625 390.71875 283.042969 390.71875 283.195312 390.71875 C 287.261719 390.71875 289.890625 392.804688 290.902344 396.925781 L 292.542969 403.570312 L 291.464844 403.601562" fill="#1d2536"/></g><g clip-path="url(#o)"><path d="M 270.722656 425.199219 L 269.625 425.199219 C 269.621094 425.191406 269.613281 425.183594 269.609375 425.175781 C 268.304688 423.261719 267.691406 420.871094 268.089844 418.40625 L 271.632812 396.5625 L 270.390625 404.230469 L 271.46875 404.195312 L 269.171875 418.375 C 268.765625 420.859375 269.394531 423.269531 270.722656 425.199219 M 271.695312 396.214844 C 271.695312 396.210938 271.695312 396.210938 271.695312 396.210938 C 271.695312 396.210938 271.695312 396.210938 271.695312 396.214844 M 271.695312 396.203125 C 272.585938 391.78125 276.480469 388.679688 280.882812 388.679688 C 280.964844 388.679688 281.046875 388.679688 281.125 388.683594 C 281.050781 388.6875 280.972656 388.695312 280.898438 388.707031 C 276.601562 388.789062 272.589844 391.796875 271.695312 396.203125" fill="#7b7c7b"/></g><g><path d="M 270.390625 404.230469 L 271.632812 396.5625 C 271.648438 396.445312 271.671875 396.328125 271.695312 396.214844 C 271.695312 396.210938 271.695312 396.210938 271.695312 396.210938 C 271.695312 396.210938 271.695312 396.207031 271.695312 396.203125 C 272.589844 391.796875 276.601562 388.789062 280.898438 388.707031 C 276.828125 389.171875 273.398438 392.285156 272.714844 396.527344 L 271.46875 404.195312 L 270.390625 404.230469" fill="#1d2536"/></g><g><path d="M 287.175781 347.441406 C 285.238281 357.199219 282.851562 379.773438 282.324219 389.519531 L 280.253906 389.402344 C 280.398438 386.660156 282.441406 360.832031 284.910156 347.949219 C 284.910156 347.949219 285.527344 346.445312 287.175781 347.441406" fill="#242e43"/></g><g><path d="M 346.644531 346.46875 C 348.6875 359.394531 344.992188 394.746094 338.484375 416.164062 L 340.960938 416.914062 C 347.445312 395.566406 351.382812 360.71875 349.417969 347.519531 C 349.417969 347.519531 349.261719 346.542969 348.792969 346.191406 C 348.078125 345.667969 346.84375 345.246094 346.644531 346.46875" fill="#242e43"/></g><g clip-path="url(#p)"><path d="M 345.074219 425.199219 C 345.980469 423.714844 346.53125 421.992188 346.53125 420.132812 C 346.53125 414.726562 342.148438 410.34375 336.746094 410.34375 C 331.339844 410.34375 326.960938 414.726562 326.960938 420.132812 C 326.960938 421.992188 327.507812 423.714844 328.410156 425.199219 L 345.074219 425.199219" fill="#bdbcbc"/></g><g clip-path="url(#q)"><path d="M 342.316406 425.199219 C 343.535156 423.855469 344.300781 422.085938 344.300781 420.132812 C 344.300781 415.957031 340.921875 412.570312 336.746094 412.570312 C 332.570312 412.570312 329.1875 415.957031 329.1875 420.132812 C 329.1875 422.085938 329.949219 423.855469 331.171875 425.199219 L 342.316406 425.199219" fill="#d3d2d2"/></g><g clip-path="url(#r)"><path d="M 334.511719 425.199219 L 338.980469 425.199219 C 340.925781 424.339844 342.292969 422.394531 342.292969 420.132812 C 342.292969 417.066406 339.804688 414.585938 336.746094 414.585938 C 333.683594 414.585938 331.199219 417.066406 331.199219 420.132812 C 331.199219 422.394531 332.5625 424.339844 334.511719 425.199219" fill="#e9e9e9"/></g><g><path d="M 273.507812 212.800781 C 273.59375 196.347656 268.59375 153.878906 266.269531 152.160156 L 255.535156 155.460938 C 255.535156 155.460938 249.359375 162.101562 248.964844 172.105469 C 248.75 177.398438 247.875 196.226562 247.101562 212.800781 L 273.507812 212.800781" fill="#a01a27"/></g><g><path d="M 271.90625 179.339844 C 272.484375 174.035156 273.246094 155.101562 274.199219 153.777344 C 274.199219 153.777344 291.058594 150.140625 292.460938 147.140625 C 294.609375 142.523438 297.6875 128.644531 298.515625 115.050781 C 298.714844 111.65625 323.097656 96.792969 323.097656 96.792969 C 323.097656 96.792969 322.589844 129.335938 330.015625 144.058594 C 330.015625 144.058594 355.0625 147.71875 360.699219 153.34375 C 362.164062 154.804688 363.339844 157.644531 364.105469 161.367188 L 271.90625 179.339844" fill="#e4846c"/></g><g><path d="M 298.515625 115.050781 C 298.074219 122.21875 297.015625 129.460938 295.796875 135.390625 C 302.804688 136.722656 313.628906 136.097656 324.921875 125.242188 C 322.871094 111.246094 323.097656 96.792969 323.097656 96.792969 C 323.097656 96.792969 298.714844 111.65625 298.515625 115.050781" fill="#d26758"/></g><g><path d="M 361.144531 212.800781 C 362.769531 179.605469 369.136719 154.425781 369.136719 154.425781 C 361.609375 151.054688 334.355469 141.828125 328.90625 141.578125 C 328.90625 141.578125 319.699219 157.828125 304.578125 165.035156 C 303.871094 161.640625 295.796875 152.160156 294.335938 141.578125 L 261.496094 154.078125 C 258.828125 155.042969 257.902344 180.421875 257.8125 212.800781 L 361.144531 212.800781" fill="#b72431"/></g><g><path d="M 350.628906 212.800781 L 350.628906 209.863281 L 260.96875 209.863281 L 260.96875 212.800781 L 350.628906 212.800781" fill="#ebf06e"/></g><g><path d="M 274.667969 75.976562 C 274.667969 75.976562 274.199219 91.757812 277.078125 106.621094 C 278.773438 115.40625 287.929688 128.160156 293.503906 130.59375 C 293.503906 130.59375 295.011719 131.441406 300.460938 130.542969 C 307.175781 129.4375 319.246094 119.386719 322.554688 106.183594 C 322.554688 106.183594 327.507812 107.019531 329.5625 100.835938 C 331.628906 94.632812 328.5625 85.511719 322.089844 91.285156 C 322.089844 91.285156 324.203125 64.507812 312.226562 62.855469 C 300.265625 61.203125 275.722656 56.628906 274.667969 75.976562" fill="#f79375"/></g><g><path d="M 271.90625 63.363281 C 270.339844 72.660156 274.652344 80.515625 274.652344 80.515625 L 275.46875 72.242188 C 280.023438 76.617188 288.988281 68.96875 288.988281 68.96875 C 300.367188 68.550781 314.996094 69.046875 314.996094 69.046875 C 317.769531 75.246094 317.109375 81.574219 317.109375 81.574219 C 315.621094 87.347656 319.660156 94.210938 321 93.398438 C 321.5625 93.042969 322.195312 92.296875 322.738281 91.503906 C 327.84375 85.703125 330.3125 95.101562 328.226562 100.308594 C 325.277344 107.671875 322.554688 106.183594 322.554688 106.183594 C 322.476562 106.480469 322.394531 106.769531 322.304688 107.058594 C 322.476562 111.0625 323.863281 116.4375 324.460938 121.46875 C 325.167969 121.59375 324.671875 113.621094 329.5625 107.53125 C 337.613281 97.5 342.277344 76.871094 340.289062 65.902344 L 271.90625 63.363281" fill="#18100f"/></g><g><path d="M 390.210938 212.800781 C 384.746094 185.199219 378.066406 158.09375 378.066406 158.09375 L 365.820312 153.0625 C 363.53125 154.75 358.667969 195.765625 358.582031 212.800781 L 390.210938 212.800781" fill="#d02d43"/></g><g><path d="M 271.90625 73.769531 C 271.90625 73.769531 327.925781 72.175781 340.746094 67.101562 C 340.746094 67.101562 348.230469 46.816406 335.6875 40.683594 C 323.144531 34.542969 289.347656 46.46875 277.492188 49.941406 C 259.28125 55.277344 266.566406 69.769531 271.90625 73.769531" fill="#d1631c"/></g><g><path d="M 294.332031 105.335938 C 294.332031 105.335938 299.730469 103.410156 303.574219 104.855469 C 307.410156 106.292969 313.285156 107.320312 313.109375 104.828125 C 313.109375 104.828125 314.851562 107.734375 309.691406 107.496094 C 304.527344 107.253906 297.570312 106.804688 295.648438 107.507812 C 293.730469 108.214844 293.007812 106.53125 294.332031 105.335938" fill="#18100f"/></g><g><path d="M 292.5625 105.335938 C 292.5625 105.335938 287.15625 103.414062 283.316406 104.855469 C 279.480469 106.292969 273.605469 107.320312 273.78125 104.828125 C 273.78125 104.828125 272.039062 107.734375 277.195312 107.496094 C 282.355469 107.253906 289.320312 106.804688 291.238281 107.507812 C 293.15625 108.214844 293.878906 106.53125 292.5625 105.335938" fill="#18100f"/></g><g><path d="M 350.628906 212.800781 L 350.628906 147.089844 L 340.746094 144.46875 L 340.746094 212.800781 L 350.628906 212.800781" fill="#ebf06e"/></g><g><path d="M 270.855469 212.800781 L 270.855469 150.523438 L 260.96875 153.789062 L 260.96875 212.800781 L 270.855469 212.800781" fill="#ebf06e"/></g><g><path d="M 80.460938 251.359375 C 80.460938 251.359375 68.285156 274.730469 62.246094 278.921875 C 56.214844 283.105469 33.792969 298.195312 47.160156 305.523438 C 60.523438 312.855469 61.386719 314.605469 56.214844 319.335938 C 51.039062 324.066406 31.46875 337.433594 42.976562 343.898438 C 54.484375 350.363281 63.972656 351.230469 56.644531 361.144531 C 49.316406 371.0625 45.433594 376.144531 53.199219 379.855469 C 60.953125 383.566406 153.375 383.761719 147.574219 362.007812 C 141.773438 340.257812 127.242188 338.601562 135.007812 332.417969 C 142.761719 326.230469 155.378906 331.394531 151.5 321.910156 C 147.617188 312.425781 137.472656 309.40625 140.820312 306.820312 C 144.171875 304.234375 154.824219 303.804688 152.085938 296.902344 C 149.34375 290.007812 142.835938 274.300781 140.054688 260.378906 L 80.460938 251.359375" fill="#c72d37"/></g><g clip-path="url(#s)"><path d="M 153.371094 425.199219 C 154.972656 420.847656 165.898438 390.480469 163.527344 378.503906 C 160.976562 365.578125 142.210938 355.496094 142.210938 355.496094 L 153.082031 425.199219 L 153.371094 425.199219" fill="#8bd377"/></g><g><path d="M 127.335938 345.945312 C 121.285156 343.476562 115.816406 340.804688 115.71875 339.183594 C 115.71875 339.183594 113.613281 317.878906 112.382812 305.554688 C 112.007812 301.847656 89.703125 289.269531 89.703125 289.269531 C 89.703125 289.269531 88.949219 326.652344 83.175781 339.511719 C 83.175781 339.511719 76.546875 341.585938 66.488281 344.941406 L 66.488281 379.855469 L 127.335938 379.855469 L 127.335938 345.945312" fill="#e4846c"/></g><g clip-path="url(#t)"><path d="M 50.40625 425.199219 L 155.511719 425.199219 C 159.242188 412.5625 154.710938 401.316406 154.710938 401.316406 C 154.710938 401.316406 141.996094 357.898438 136.003906 351.609375 C 133.371094 348.851562 127.335938 345.234375 116.21875 340.101562 C 116.21875 340.101562 121.234375 345.726562 109.179688 365.515625 C 109.179688 365.515625 97.726562 364.1875 83.171875 339.511719 C 83.171875 339.511719 38.578125 348.214844 39.621094 364.175781 C 39.621094 364.175781 42.25 402.207031 48.40625 418.984375 C 49.136719 420.964844 49.800781 423.050781 50.40625 425.199219" fill="#8bd377"/></g><g><path d="M 89.496094 295.339844 C 89.304688 299.769531 88.945312 306.148438 88.308594 312.828125 C 93.265625 322.945312 106.273438 346.765625 116.027344 339.859375 C 115.847656 339.621094 115.734375 339.390625 115.71875 339.183594 C 115.71875 339.183594 114.304688 324.828125 113.113281 312.867188 L 91.351562 294.699219 L 89.496094 295.339844" fill="#d26758"/></g><g><path d="M 121.140625 329.363281 C 121.140625 329.363281 119.117188 330.644531 114.910156 329.628906 C 111.359375 328.769531 92.941406 317.015625 89.324219 302.523438 C 89.324219 302.523438 83.890625 303.433594 81.621094 296.636719 C 79.355469 289.847656 82.300781 280.339844 89.417969 286.683594 C 89.417969 286.683594 87.511719 256.792969 100.636719 254.976562 C 113.777344 253.171875 138.878906 248.6875 140.039062 269.921875 C 140.039062 269.921875 140.453125 288.929688 136.855469 304.945312 C 136.855469 304.945312 133.015625 318.222656 121.140625 329.363281" fill="#f79375"/></g><g><path d="M 140.054688 271.78125 C 141.59375 267.132812 140.945312 259.070312 136.867188 253.316406 C 128.410156 241.363281 97.859375 227.96875 80.460938 251.359375 C 67.777344 268.410156 74.058594 296.566406 81.621094 303.992188 C 87.742188 310.003906 83.628906 313.710938 84.796875 316.949219 C 85.609375 319.195312 86.460938 319.4375 87.222656 319.3125 C 87.886719 313.777344 89.394531 307.878906 89.582031 303.476562 C 89.496094 303.15625 89.402344 302.84375 89.324219 302.523438 C 89.324219 302.523438 83.890625 303.433594 81.621094 296.636719 C 79.390625 289.949219 82.21875 280.636719 89.105469 286.414062 C 89.710938 287.269531 90.398438 288.113281 91.019531 288.488281 C 92.492188 289.398438 99.082031 282.90625 97.453125 276.5625 C 97.453125 276.5625 115.453125 278.3125 129.914062 258.394531 C 129.914062 258.394531 137.886719 266.523438 140.054688 271.78125" fill="#c72d37"/></g><g clip-path="url(#u)"><path d="M 75.472656 425.199219 L 75.472656 341.097656 L 66.488281 343.523438 L 66.488281 425.199219 L 75.472656 425.199219" fill="#41813c"/></g><g clip-path="url(#v)"><path d="M 147.269531 425.199219 L 146.113281 357.589844 L 137.128906 352.773438 L 138.304688 425.199219 L 147.269531 425.199219" fill="#41813c"/></g><g clip-path="url(#w)"><path d="M 55.71875 425.199219 C 63.09375 391.003906 69.988281 346.9375 56.554688 346.757812 C 56.554688 346.757812 40.691406 349.117188 39.601562 358.605469 L 25.34375 425.199219 L 55.71875 425.199219" fill="#a4dc86"/></g><g clip-path="url(#x)"><path d="M 142.757812 425.199219 C 138.644531 419.84375 134.503906 414.820312 134.503906 414.820312 C 135.507812 418.652344 137.386719 422.160156 139.515625 425.199219 L 142.757812 425.199219" fill="#1b4320"/></g><g clip-path="url(#y)"><path d="M 146.441406 425.199219 C 142.1875 418.027344 134.882812 407.640625 134.882812 407.640625 C 136.183594 414.746094 140.425781 421.007812 143.964844 425.199219 L 146.441406 425.199219" fill="#1b4320"/></g><g clip-path="url(#z)"><path d="M 148.960938 425.199219 C 146.074219 418.054688 137.929688 403.484375 137.929688 403.484375 C 138.648438 412.734375 144.347656 421.105469 147.601562 425.199219 L 148.960938 425.199219" fill="#1b4320"/></g><g><path d="M 149.789062 420.75 C 149.789062 420.75 139.402344 408.941406 138.984375 395.871094 C 138.984375 395.871094 148.890625 415.632812 149.789062 420.75" fill="#1b4320"/></g><g><path d="M 149.421875 412.316406 C 149.421875 412.316406 139.617188 400.011719 139.839844 386.945312 C 139.839844 386.945312 148.761719 407.167969 149.421875 412.316406" fill="#1b4320"/></g><g><path d="M 148.675781 399.167969 C 148.675781 399.167969 140.570312 385.6875 142.511719 372.75 C 142.511719 372.75 148.699219 393.972656 148.675781 399.167969" fill="#1b4320"/></g><g><path d="M 148.359375 399.4375 C 148.359375 399.4375 158.164062 387.140625 157.953125 374.070312 C 157.953125 374.070312 149.019531 394.285156 148.359375 399.4375" fill="#1b4320"/></g><g><path d="M 148.121094 390.144531 C 148.121094 390.144531 153.703125 380.445312 152.171875 371.273438 C 152.171875 371.273438 148.03125 386.441406 148.121094 390.144531" fill="#1b4320"/></g><g><path d="M 149.289062 410.632812 C 149.289062 410.632812 160.808594 399.917969 162.523438 386.953125 C 162.523438 386.953125 150.695312 405.621094 149.289062 410.632812" fill="#1b4320"/></g><g><path d="M 149.023438 405.167969 C 149.023438 405.167969 160.539062 394.464844 162.261719 381.492188 C 162.261719 381.492188 150.425781 400.167969 149.023438 405.167969" fill="#1b4320"/></g><g><path d="M 149.65625 416.914062 C 149.65625 416.914062 161.175781 406.203125 162.894531 393.246094 C 162.894531 393.246094 151.066406 411.910156 149.65625 416.914062" fill="#1b4320"/></g><g><path d="M 149.636719 421.84375 C 149.636719 421.84375 161.160156 411.125 162.878906 398.15625 C 162.878906 398.15625 151.050781 416.835938 149.636719 421.84375" fill="#1b4320"/></g><g clip-path="url(#A)"><path d="M 153.023438 425.199219 C 156.539062 421.15625 162.347656 413.3125 163.527344 404.40625 C 163.527344 404.40625 154.84375 418.128906 151.476562 425.199219 L 153.023438 425.199219" fill="#1b4320"/></g><g clip-path="url(#B)"><path d="M 158.175781 425.199219 C 160.527344 421.355469 162.644531 416.707031 163.308594 411.710938 C 163.308594 411.710938 158.921875 418.648438 155.167969 425.199219 L 158.175781 425.199219" fill="#1b4320"/></g><g clip-path="url(#C)"><path d="M 162.828125 425.199219 C 164.347656 422.476562 165.613281 419.460938 166.28125 416.269531 C 166.28125 416.269531 163.226562 420.386719 159.863281 425.199219 L 162.828125 425.199219" fill="#1b4320"/></g><g><path d="M 148.0625 407.199219 C 148.0625 407.199219 148.019531 405.472656 147.953125 402.882812 C 147.902344 400.289062 147.765625 396.851562 147.652344 393.402344 C 147.550781 391.683594 147.449219 389.960938 147.355469 388.351562 C 147.300781 387.542969 147.28125 386.757812 147.203125 386.023438 C 147.132812 385.285156 147.0625 384.589844 147 383.945312 C 146.746094 381.367188 146.582031 379.648438 146.582031 379.648438 C 146.582031 379.648438 146.882812 381.351562 147.339844 383.902344 C 147.449219 384.539062 147.574219 385.230469 147.703125 385.964844 C 147.84375 386.695312 147.925781 387.472656 148.042969 388.273438 C 148.265625 389.882812 148.5 391.597656 148.738281 393.3125 C 149.121094 396.746094 149.53125 400.1875 149.785156 402.761719 C 150.054688 405.339844 150.234375 407.054688 150.234375 407.054688 L 148.0625 407.199219" fill="#1b4320"/></g><g clip-path="url(#D)"><path d="M 122.679688 425.199219 L 124.757812 425.199219 C 121.132812 421.203125 115.574219 415.886719 115.574219 415.886719 C 117.109375 419.792969 120.078125 422.976562 122.679688 425.199219" fill="#1b4320"/></g><g clip-path="url(#E)"><path d="M 127.757812 425.199219 C 127.800781 421.601562 127.339844 416.082031 124.660156 411.617188 C 124.660156 411.617188 125.5625 419.890625 126.5625 425.199219 L 127.757812 425.199219" fill="#1b4320"/></g><g><path d="M 124.355469 423.820312 C 124.355469 423.820312 124.355469 416.574219 120.511719 411.925781 C 120.511719 411.925781 123.109375 421.773438 124.355469 423.820312" fill="#1b4320"/></g><g clip-path="url(#F)"><path d="M 132.902344 425.199219 C 132.847656 422.652344 132.460938 419.914062 131.40625 417.367188 C 131.40625 417.367188 131.261719 421.105469 131.21875 425.199219 L 132.902344 425.199219" fill="#1b4320"/></g><g clip-path="url(#G)"><path d="M 130.898438 425.199219 C 131.140625 421.933594 130.964844 417.972656 129.484375 414.398438 C 129.484375 414.398438 129.257812 420.152344 129.296875 425.199219 L 130.898438 425.199219" fill="#1b4320"/></g><g clip-path="url(#H)"><path d="M 161.417969 425.199219 C 160.582031 420.144531 159.652344 415.449219 159.652344 415.449219 C 158.863281 418.722656 158.914062 422.109375 159.339844 425.199219 L 161.417969 425.199219" fill="#1b4320"/></g><g clip-path="url(#I)"><path d="M 164.035156 425.199219 C 163.734375 419.433594 163.175781 413.429688 163.175781 413.429688 C 161.796875 417.335938 161.664062 421.546875 161.992188 425.199219 L 164.035156 425.199219" fill="#1b4320"/></g><g clip-path="url(#J)"><path d="M 166.632812 425.199219 C 166.859375 418.640625 166.371094 408.28125 166.371094 408.28125 C 163.988281 414.152344 164.476562 420.882812 165.203125 425.199219 L 166.632812 425.199219" fill="#1b4320"/></g><g><path d="M 168.636719 423.464844 C 168.636719 423.464844 165.503906 411.476562 169.839844 402.117188 C 169.839844 402.117188 169.8125 419.550781 168.636719 423.464844" fill="#1b4320"/></g><g><path d="M 172.300781 413.753906 C 172.300781 413.753906 170.773438 401.449219 176.300781 392.742188 C 176.300781 392.742188 173.984375 410.011719 172.300781 413.753906" fill="#1b4320"/></g><g><path d="M 171.996094 413.847656 C 171.996094 413.847656 182.988281 408.121094 187.015625 398.621094 C 187.015625 398.621094 174.117188 410.34375 171.996094 413.847656" fill="#1b4320"/></g><g><path d="M 174.785156 407.066406 C 174.785156 407.066406 181.914062 401.871094 183.734375 394.761719 C 183.734375 394.761719 175.90625 404.375 174.785156 407.066406" fill="#1b4320"/></g><g><path d="M 169.085938 422.203125 C 169.085938 422.203125 180.8125 418.175781 186.199219 409.375 C 186.199219 409.375 171.707031 419.054688 169.085938 422.203125" fill="#1b4320"/></g><g><path d="M 170.636719 418.1875 C 170.636719 418.1875 182.355469 414.144531 187.742188 405.359375 C 187.742188 405.359375 173.257812 415.042969 170.636719 418.1875" fill="#1b4320"/></g><g clip-path="url(#K)"><path d="M 171.183594 425.199219 C 175.097656 423.257812 181.042969 419.597656 184.449219 414.023438 C 184.449219 414.023438 173.742188 421.183594 169.078125 425.199219 L 171.183594 425.199219" fill="#1b4320"/></g><g clip-path="url(#L)"><path d="M 175.488281 425.199219 C 178.207031 423.238281 180.9375 420.710938 182.863281 417.566406 C 182.863281 417.566406 176.945312 421.515625 171.988281 425.199219 L 175.488281 425.199219" fill="#1b4320"/></g><g><path d="M 173.730469 406.855469 L 177.03125 399.019531 L 175.375 407.351562 Z M 173.730469 406.855469" fill="#1b4320"/></g><g><path d="M 179.976562 212.800781 C 182.40625 174.359375 177.949219 154.402344 177.949219 154.402344 C 173.636719 145.273438 160.355469 140 160.355469 140 L 154.398438 212.800781 L 179.976562 212.800781" fill="#96ddf8"/></g><g><path d="M 162.761719 212.800781 L 164.335938 154.152344 L 147.828125 131.695312 L 94.480469 140 L 87.558594 212.800781 L 162.761719 212.800781" fill="#337168"/></g><g><path d="M 151.550781 134.242188 C 145.410156 131.734375 139.855469 129.019531 139.765625 127.378906 C 139.765625 127.378906 137.621094 105.75 136.363281 93.230469 C 135.988281 89.46875 113.339844 76.695312 113.339844 76.695312 C 113.339844 76.695312 112.574219 114.652344 106.714844 127.710938 C 106.714844 127.710938 99.980469 129.820312 89.769531 133.222656 L 89.769531 168.679688 L 151.550781 168.679688 L 151.550781 134.242188" fill="#e4846c"/></g><g><path d="M 72.875 212.800781 L 109.078125 212.800781 L 109.078125 131.5625 C 108.300781 130.339844 107.511719 129.066406 106.710938 127.710938 C 106.710938 127.710938 61.429688 136.546875 62.488281 152.757812 C 62.488281 152.757812 65.15625 191.378906 71.410156 208.40625 C 71.929688 209.820312 72.414062 211.296875 72.875 212.800781" fill="#c2def5"/></g><g><path d="M 63.636719 212.800781 C 69.71875 197.496094 75.5 183.417969 75.5 183.417969 L 52.601562 168.679688 C 52.601562 168.679688 43.84375 190.898438 36.324219 212.800781 L 63.636719 212.800781" fill="#337168"/></g><g><path d="M 180.679688 212.800781 C 183.507812 200.773438 179.351562 190.472656 179.351562 190.472656 C 179.351562 190.472656 166.4375 146.386719 160.355469 140 C 158 137.535156 152.972656 134.394531 144.109375 130.121094 L 144.109375 212.800781 L 180.679688 212.800781" fill="#c2def5"/></g><g><path d="M 113.132812 82.859375 C 112.9375 87.355469 112.570312 93.835938 111.929688 100.621094 C 116.960938 110.890625 130.167969 135.074219 140.070312 128.066406 C 139.886719 127.824219 139.773438 127.589844 139.765625 127.378906 C 139.765625 127.378906 138.324219 112.804688 137.113281 100.65625 L 115.015625 82.210938 L 113.132812 82.859375" fill="#d26758"/></g><g><path d="M 145.269531 117.40625 C 145.269531 117.40625 143.210938 118.710938 138.9375 117.675781 C 135.332031 116.804688 116.628906 104.867188 112.953125 90.152344 C 112.953125 90.152344 107.4375 91.078125 105.136719 84.175781 C 102.839844 77.277344 105.828125 67.628906 113.058594 74.066406 C 113.058594 74.066406 111.117188 43.71875 124.441406 41.878906 C 137.785156 40.046875 163.273438 35.488281 164.453125 57.050781 C 164.453125 57.050781 164.882812 76.347656 161.21875 92.613281 C 161.21875 92.613281 157.320312 106.097656 145.269531 117.40625" fill="#f79375"/></g><g><path d="M 164.472656 58.941406 C 166.03125 54.21875 165.371094 46.03125 161.234375 40.1875 C 152.648438 28.054688 121.621094 14.449219 103.957031 38.203125 C 91.082031 55.519531 97.460938 84.105469 105.136719 91.648438 C 111.351562 97.753906 107.171875 101.511719 108.359375 104.800781 C 109.183594 107.082031 110.050781 107.324219 110.824219 107.199219 C 111.492188 101.585938 113.023438 95.585938 113.21875 91.113281 C 113.132812 90.800781 113.035156 90.480469 112.953125 90.152344 C 112.953125 90.152344 107.4375 91.078125 105.136719 84.175781 C 102.871094 77.386719 105.738281 67.929688 112.738281 73.796875 C 113.347656 74.664062 114.054688 75.519531 114.675781 75.898438 C 116.175781 76.828125 122.863281 70.230469 121.210938 63.796875 C 121.210938 63.796875 139.488281 65.566406 154.179688 45.347656 C 154.179688 45.347656 162.269531 53.601562 164.472656 58.941406" fill="#1d1416"/></g><g><path d="M 65.851562 212.800781 C 80.113281 179.691406 94.976562 138.484375 82.109375 135.503906 C 82.109375 135.503906 65.863281 134.429688 62.734375 143.601562 L 31.421875 212.800781 L 65.851562 212.800781" fill="#96ddf8"/></g><g><path d="M 95.132812 212.800781 L 109.566406 212.800781 C 109.710938 162.335938 108.757812 121.386719 108.757812 121.386719 L 105.71875 122.097656 L 100.9375 129.320312 C 99.347656 135.679688 92.421875 178.476562 92.421875 178.476562 L 99.644531 185.253906 L 90.402344 196.632812 L 95.132812 212.800781" fill="#96ddf8"/></g><g><path d="M 142.777344 212.800781 L 151.480469 212.800781 C 152.285156 208.351562 153.0625 203.550781 153.769531 198.289062 L 149.730469 186.25 L 160.167969 175.746094 C 160.167969 175.746094 150.9375 140.890625 147.828125 131.695312 L 143.183594 125.5 L 139.5 124.441406 C 139.5 124.441406 143.957031 170.707031 142.777344 212.800781" fill="#96ddf8"/></g><g><path d="M 168.070312 185.253906 L 166.757812 185.210938 L 166.632812 184.964844 C 165.910156 183.527344 162.875 182.378906 159.117188 181.953125 C 154.382812 181.804688 150.113281 182.816406 149.050781 184.460938 L 148.90625 184.683594 L 147.460938 184.636719 C 147.636719 184.113281 147.785156 183.582031 147.9375 183.039062 C 149.746094 181.964844 153.125 181.351562 156.785156 181.441406 L 156.992188 181.429688 C 161.144531 181.265625 165.171875 182.039062 167.367188 183.277344 C 167.488281 183.964844 167.742188 184.625 168.070312 185.253906" fill="#242e43"/></g><g><path d="M 166.304688 184.488281 C 165.21875 183.277344 162.453125 182.328125 159.117188 181.953125 C 158.804688 181.945312 158.492188 181.9375 158.1875 181.9375 C 154.171875 181.9375 150.632812 182.777344 149.332031 184.113281 L 149.441406 183.660156 C 150.816406 182.382812 154.277344 181.585938 158.179688 181.585938 C 158.492188 181.585938 158.808594 181.589844 159.125 181.601562 C 162.382812 181.96875 165.09375 182.878906 166.230469 184.046875 L 166.304688 184.488281" fill="#131823"/></g><g><path d="M 148.042969 212.800781 L 149.628906 212.800781 C 145.878906 210.890625 143.761719 206.683594 144.792969 202.511719 L 149.933594 181.671875 C 150.976562 177.421875 153.75 175.359375 158.050781 175.519531 C 163.117188 175.359375 165.328125 178.464844 165.914062 182.09375 L 169.355469 203.277344 C 169.996094 207.257812 167.871094 211.023438 164.398438 212.800781 L 166.386719 212.800781 C 169.980469 211.042969 172.1875 207.125 171.519531 202.972656 L 168 181.277344 C 167.175781 176.195312 162.390625 172.746094 157.308594 173.570312 L 157.128906 173.601562 C 152.878906 173.527344 148.984375 176.394531 147.921875 180.691406 L 142.660156 202.03125 C 141.554688 206.523438 143.929688 211.035156 148.042969 212.800781" fill="#959796"/></g><g><path d="M 167.007812 188.832031 L 165.914062 182.09375 C 165.328125 178.464844 163.117188 175.359375 158.050781 175.519531 C 153.75 175.359375 150.976562 177.421875 149.933594 181.671875 L 148.304688 188.273438 L 146.070312 188.207031 L 147.921875 180.691406 C 150.316406 173.550781 156.609375 173.5625 157.253906 173.570312 C 157.285156 173.570312 157.304688 173.574219 157.308594 173.570312 C 162.210938 172.878906 167.175781 176.195312 168 181.277344 L 169.230469 188.894531 L 167.007812 188.832031" fill="#242e43"/></g><g><path d="M 144.636719 205.988281 C 144.460938 204.859375 144.503906 203.683594 144.792969 202.511719 L 148.304688 188.273438 L 144.792969 202.511719 C 144.503906 203.683594 144.460938 204.859375 144.636719 205.988281 M 158.050781 175.519531 C 158.09375 175.515625 158.140625 175.515625 158.1875 175.515625 C 158.191406 175.515625 158.191406 175.515625 158.195312 175.515625 L 158.050781 175.519531" fill="#7cb6cd"/></g><g><path d="M 149.628906 212.800781 L 148.566406 212.800781 C 144.800781 210.898438 142.6875 206.660156 143.722656 202.480469 L 147.230469 188.242188 L 148.304688 188.273438 L 144.792969 202.511719 C 144.503906 203.683594 144.460938 204.859375 144.636719 205.988281 C 145.078125 208.867188 146.929688 211.425781 149.628906 212.800781 M 149.933594 181.671875 C 149.9375 181.65625 149.941406 181.640625 149.945312 181.628906 C 149.941406 181.640625 149.9375 181.65625 149.933594 181.671875 M 149.953125 181.59375 C 150.972656 177.546875 153.578125 175.511719 157.589844 175.507812 C 153.578125 175.511719 150.972656 177.550781 149.953125 181.59375 M 158.050781 175.519531 C 158.09375 175.515625 158.140625 175.515625 158.1875 175.515625 C 158.140625 175.515625 158.09375 175.515625 158.050781 175.519531 M 157.59375 175.507812 L 157.59375 175.507812" fill="#7b7c7b"/></g><g><path d="M 148.304688 188.273438 L 147.230469 188.242188 L 148.859375 181.644531 C 149.867188 177.546875 152.484375 175.472656 156.527344 175.472656 C 156.675781 175.472656 156.824219 175.476562 156.972656 175.480469 C 157.082031 175.480469 157.191406 175.476562 157.296875 175.476562 C 157.605469 175.476562 157.902344 175.488281 158.1875 175.515625 C 158.140625 175.515625 158.09375 175.515625 158.050781 175.519531 C 157.894531 175.511719 157.746094 175.507812 157.59375 175.507812 C 157.59375 175.507812 157.59375 175.507812 157.589844 175.507812 C 153.578125 175.511719 150.972656 177.546875 149.953125 181.59375 C 149.949219 181.605469 149.945312 181.617188 149.945312 181.628906 C 149.941406 181.640625 149.9375 181.65625 149.933594 181.671875 L 148.304688 188.273438" fill="#1d2536"/></g><g><path d="M 166.386719 212.800781 C 169.546875 211.257812 171.632812 208.042969 171.636719 204.464844 C 171.636719 208.042969 169.546875 211.253906 166.386719 212.800781 M 168 181.277344 C 167.722656 179.578125 167.003906 178.058594 165.976562 176.824219 C 167.003906 178.058594 167.722656 179.574219 168 181.277344" fill="#a1b7ca"/></g><g><path d="M 166.386719 212.800781 L 165.253906 212.800781 C 168.882812 211.058594 171.113281 207.113281 170.4375 202.941406 L 168.160156 188.863281 L 169.230469 188.894531 L 168 181.277344 L 171.519531 202.972656 C 171.597656 203.476562 171.636719 203.972656 171.636719 204.464844 C 171.632812 208.042969 169.546875 211.257812 166.386719 212.800781 M 168 181.277344 C 167.257812 176.71875 163.191406 173.578125 158.820312 173.484375 C 158.738281 173.472656 158.65625 173.464844 158.570312 173.457031 C 158.652344 173.453125 158.734375 173.453125 158.8125 173.453125 C 161.632812 173.453125 164.242188 174.734375 165.976562 176.824219 C 167.003906 178.058594 167.722656 179.578125 168 181.277344" fill="#7b7c7b"/></g><g><path d="M 169.230469 188.894531 L 168.160156 188.863281 L 166.925781 181.246094 C 166.242188 177.039062 162.851562 173.953125 158.820312 173.484375 C 163.191406 173.578125 167.257812 176.71875 168 181.277344 L 169.230469 188.894531" fill="#1d2536"/></g><g><path d="M 152.5625 134.363281 C 154.480469 144.046875 156.855469 164.609375 157.382812 174.285156 L 159.4375 174.175781 C 159.296875 171.449219 157.265625 147.660156 154.8125 134.863281 C 154.8125 134.863281 154.199219 133.375 152.5625 134.363281" fill="#242e43"/></g><g><path d="M 95.035156 130.109375 C 93.015625 142.945312 96.683594 178.054688 103.144531 199.316406 L 100.6875 200.0625 C 94.242188 178.867188 90.339844 144.261719 92.289062 131.15625 C 92.289062 131.15625 92.441406 130.1875 92.90625 129.84375 C 93.613281 129.3125 94.84375 128.898438 95.035156 130.109375" fill="#242e43"/></g><g><path d="M 103.113281 212.800781 L 106.636719 212.800781 C 111.152344 211.96875 114.589844 208.023438 114.589844 203.261719 C 114.589844 197.890625 110.238281 193.539062 104.875 193.539062 C 99.503906 193.539062 95.15625 197.890625 95.15625 203.261719 C 95.15625 208.023438 98.585938 211.96875 103.113281 212.800781" fill="#bdbcbc"/></g><g><path d="M 112.375 203.261719 C 112.375 207.398438 109.015625 210.761719 104.875 210.761719 C 100.726562 210.761719 97.367188 207.398438 97.367188 203.261719 C 97.367188 199.113281 100.726562 195.753906 104.875 195.753906 C 109.015625 195.753906 112.375 199.113281 112.375 203.261719" fill="#d3d2d2"/></g><g><path d="M 110.378906 203.261719 C 110.378906 206.300781 107.914062 208.765625 104.875 208.765625 C 101.835938 208.765625 99.363281 206.300781 99.363281 203.261719 C 99.363281 200.21875 101.835938 197.753906 104.875 197.753906 C 107.914062 197.753906 110.378906 200.21875 110.378906 203.261719" fill="#e9e9e9"/></g><g><path d="M 96.597656 63.539062 C 96.597656 63.539062 137.066406 45.546875 165.105469 50.894531 C 165.105469 50.894531 168.753906 23.84375 157.011719 17.421875 C 145.273438 11 110.460938 16.839844 99.996094 27.636719 C 89.527344 38.433594 95.207031 51.109375 96.597656 63.539062" fill="#c2def5"/></g></g></svg>