<?xml version="1.0" encoding="UTF-8"?><svg xmlns="http://www.w3.org/2000/svg" xmlns:xlink="http://www.w3.org/1999/xlink" height="118.0" preserveAspectRatio="xMidYMid meet" version="1.0" viewBox="0.0 0.0 126.0 118.0" width="126.0" zoomAndPan="magnify"><g><g><g><path d="M117.22,35.04h-11.01v-5.82c0-1.66-1.34-3-3-3h-1.51c-1.66,0-3,1.34-3,3v5.82H78.34 C75.88,15.84,59.57,1,39.83,1C18.38,1,1,18.5,1,40.09c0,13.12,6.42,24.73,16.28,31.82v37.26c0,4.32,3.49,7.83,7.78,7.83h51.09 h41.07c4.3,0,7.78-3.51,7.78-7.83V51.43v-8.55C125,38.55,121.52,35.04,117.22,35.04z" fill="#a8dee1"/></g><g><g><path d="M102.45 71.61H114.98V84.22H102.45z" fill="#6fceae"/></g><g><path d="M125,51.43v57.74c0,4.32-3.48,7.83-7.78,7.83H76.15H25.06c-4.29,0-7.78-3.51-7.78-7.83V71.91 c3.04,2.19,6.41,3.95,10.02,5.19v7.12v12.61v12.6h12.53h12.52h12.53h11.27h1.25h12.53h12.52h12.53v-12.6V84.22V71.61V59h-12.53 H89.93H77.4h-3.58c1.31-2.38,2.38-4.92,3.17-7.57H77H125z" fill="#1ea6bc"/></g><g><path d="M125,42.88v8.55H77c1.08-3.59,1.66-7.4,1.66-11.34c0-1.71-0.11-3.4-0.32-5.05H98.7v5.83 c0,1.66,1.34,3,3,3h1.51c1.66,0,3-1.34,3-3v-5.83h11.01C121.52,35.04,125,38.55,125,42.88z" fill="#ffc05a"/></g><g><path d="M102.45 96.83H114.98V109.42999999999999H102.45z" fill="#6fceae"/></g><g><path d="M102.45 84.22H114.98V96.83H102.45z" fill="#e15c63"/></g><g><path d="M102.45 59H114.98V71.61H102.45z" fill="#e7f2f1"/></g><g><path d="M106.21,35.04v5.83c0,1.66-1.34,3-3,3h-1.51c-1.66,0-3-1.34-3-3v-5.83v-5.82c0-1.66,1.34-3,3-3 h1.51c1.66,0,3,1.34,3,3V35.04z" fill="#894687"/></g><g><path d="M89.93 96.83H102.45V109.42999999999999H89.93z" fill="#e15c63"/></g><g><path d="M89.93 84.22H102.45V96.83H89.93z" fill="#e7f2f1"/></g><g><path d="M89.93 71.61H102.45V84.22H89.93z" fill="#c3ddda"/></g><g><path d="M89.93 59H102.45V71.61H89.93z" fill="#e15c63"/></g><g><path d="M89.93 96.83L89.93 109.43 77.4 109.43 77.4 96.83 81.16 96.83z" fill="#e7f2f1"/></g><g><path d="M89.93 84.22L89.93 96.83 81.16 96.83 77.4 96.83 77.4 84.22 81.16 84.22z" fill="#c3ddda"/></g><g><path d="M89.93 71.61L89.93 84.22 81.16 84.22 77.4 84.22 77.4 71.61 81.16 71.61z" fill="#e7f2f1"/></g><g><path d="M89.93 59L89.93 71.61 81.16 71.61 77.4 71.61 77.4 59z" fill="#c3ddda"/></g><g><path d="M77.4 96.83L77.4 109.43 76.15 109.43 64.88 109.43 64.88 96.83z" fill="#c3ddda"/></g><g><path d="M64.88 84.22H77.39999999999999V96.83H64.88z" fill="#e7f2f1"/></g><g><path d="M64.88 71.61H77.39999999999999V84.22H64.88z" fill="#e15c63"/></g><g><path d="M77.4,59v12.61H64.88v-1.66v-0.01c3.6-3.06,6.64-6.76,8.94-10.94H77.4z" fill="#e7f2f1"/></g><g><g><path d="M64.88,69.95v1.66h-2.09c0.72-0.54,1.42-1.09,2.09-1.67V69.95z" fill="#e15c63"/></g></g><g><path d="M64.88 96.83L64.88 109.43 52.35 109.43 52.35 96.83 61.12 96.83z" fill="#e15c63"/></g><g><path d="M64.88 84.22L64.88 96.83 61.12 96.83 52.35 96.83 52.35 84.22 61.12 84.22z" fill="#c3ddda"/></g><g><path d="M64.88,71.61v12.61h-3.76h-8.77V77.1c3.78-1.3,7.29-3.16,10.44-5.49H64.88z" fill="#e7f2f1"/></g><g><path d="M39.83 96.83H52.349999999999994V109.42999999999999H39.83z" fill="#c3ddda"/></g><g><path d="M39.83 84.22H52.349999999999994V96.83H39.83z" fill="#e7f2f1"/></g><g><path d="M52.35,77.1v7.12H39.83v-5.05C44.21,79.17,48.42,78.44,52.35,77.1z" fill="#c3ddda"/></g><g><path d="M27.3 96.83H39.83V109.42999999999999H27.3z" fill="#e7f2f1"/></g><g><path d="M27.3 84.22H39.83V96.83H27.3z" fill="#e15c63"/></g><g><path d="M39.83,79.17v5.05H27.3V77.1C31.23,78.44,35.44,79.17,39.83,79.17z" fill="#e7f2f1"/></g><g><path d="M42.33,40.09c0,0.41-0.1,0.81-0.27,1.15c-0.42,0.81-1.26,1.37-2.23,1.37 c-1.39,0-2.51-1.13-2.51-2.52c0-0.99,0.56-1.84,1.38-2.25c0.34-0.17,0.73-0.27,1.13-0.27C41.21,37.57,42.33,38.69,42.33,40.09z" fill="#604533"/></g><g><path d="M78.34,35.04c0.21,1.65,0.32,3.34,0.32,5.05c0,3.94-0.58,7.75-1.66,11.34h-0.01 c-0.79,2.65-1.86,5.19-3.17,7.57c-2.3,4.18-5.34,7.88-8.94,10.94c-0.67,0.58-1.37,1.13-2.09,1.67 c-3.15,2.33-6.66,4.19-10.44,5.49c-3.93,1.34-8.14,2.07-12.52,2.07c-4.39,0-8.6-0.73-12.53-2.07c-3.61-1.24-6.98-3-10.02-5.19 C7.42,64.82,1,53.21,1,40.09C1,18.5,18.38,1,39.83,1C59.57,1,75.88,15.84,78.34,35.04z M71.14,40.09 c0-8.71-3.5-16.59-9.17-22.29S48.48,8.57,39.83,8.57S23.35,12.1,17.69,17.8c-5.67,5.7-9.17,13.58-9.17,22.29 s3.5,16.59,9.17,22.29c5.66,5.7,13.49,9.23,22.14,9.23s16.47-3.53,22.14-9.23S71.14,48.8,71.14,40.09z" fill="#655f68"/></g></g><g><g><g><g><path d="M125,42.88v8.55h-3.92c0.71-4.53,1.09-9.39,1.09-14.6C123.9,38.27,125,40.44,125,42.88z" fill="#f9b132"/></g><g><path d="M114.98,71.61v12.61h-8.19c3.09-3.72,5.84-7.91,8.11-12.61H114.98z" fill="#53b79a"/></g><g><path d="M102.45,88.94v7.89h-9.68C96.19,94.52,99.44,91.9,102.45,88.94z" fill="#d6eae8"/></g><g><path d="M114.98,84.22v12.61h-12.53v-7.89c1.51-1.48,2.96-3.06,4.34-4.72H114.98z" fill="#d14b62"/></g><g><path d="M102.45 96.83H114.98V109.42999999999999H102.45z" fill="#53b79a"/></g><g><path d="M102.45,96.83v12.6H89.93V98.66c0.96-0.59,1.91-1.2,2.84-1.83H102.45z" fill="#d14b62"/></g><g><path d="M89.93,98.66v10.77H77.4v-4.49C81.68,103.2,85.9,101.13,89.93,98.66z" fill="#d6eae8"/></g><g><path d="M77.4,104.94v4.49h-1.25H64.88v-0.29C69.04,108.02,73.25,106.64,77.4,104.94z" fill="#b8d3cf"/></g><g><path d="M77.4,109.43h12.53h12.52h12.53v-12.6V84.22V71.61v-0.16c2.82-5.84,4.92-12.48,6.1-20.02H125 v57.74c0,4.32-3.48,7.83-7.78,7.83H76.15H25.06c-2.68,0-5.04-1.37-6.44-3.45c0.54,0.05,21.94,1.9,45.15-4.12h1.11h11.27H77.4z" fill="#1498b7"/></g><g><path d="M27.3,84.22v0.18c-6.4-3.1-10.02-7.02-10.02-7.02v-5.47c3.04,2.19,6.41,3.95,10.02,5.19V84.22z" fill="#1498b7"/></g><g><path d="M39.83,87.94c-4.89-0.45-9.11-1.87-12.53-3.54v-0.18h12.53V87.94z" fill="#d14b62"/></g><g><path d="M39.83,79.17v5.05H27.3V77.1C31.23,78.44,35.44,79.17,39.83,79.17z" fill="#d6eae8"/></g><g><path d="M64.88,69.95v1.66h-2.09c0.72-0.54,1.42-1.09,2.09-1.67V69.95z" fill="#d14b62"/></g><g><path d="M52.35,77.1v7.12H39.83v-5.05C44.21,79.17,48.42,78.44,52.35,77.1z" fill="#b8d3cf"/></g><g><path d="M52.35,84.22v2.73c-4.54,1.14-8.73,1.37-12.52,0.99v-3.72H52.35z" fill="#d6eae8"/></g><g><path d="M52.35,84.22H60c-2.64,1.22-5.2,2.11-7.65,2.73V84.22z" fill="#b8d3cf"/></g><g><path d="M64.88,71.61v10.06c-1.66,0.98-3.29,1.83-4.88,2.55h-7.65V77.1c3.78-1.3,7.29-3.16,10.44-5.49 H64.88z" fill="#d6eae8"/></g><g><path d="M64.88,71.61h11.63c-2,2.75-4.54,5.32-7.75,7.56c-1.31,0.91-2.61,1.75-3.88,2.5V71.61z" fill="#d14b62"/></g><g><path d="M77.4,59v11.32c-0.28,0.43-0.58,0.86-0.89,1.29H64.88v-1.66v-0.01 c3.6-3.06,6.64-6.76,8.94-10.94H77.4z" fill="#d6eae8"/></g><g><path d="M77.4,59h4.79c-0.91,3.82-2.42,7.7-4.79,11.32V59z" fill="#b8d3cf"/></g><g><path d="M77,51.43h6.35c-0.18,2.43-0.53,4.99-1.16,7.57H77.4h-3.58c1.31-2.38,2.38-4.92,3.17-7.57H77z" fill="#1498b7"/></g><g><path d="M82.02,35.04c0,0,1.96,7.27,1.33,16.39H77c1.08-3.59,1.66-7.4,1.66-11.34 c0-1.71-0.11-3.4-0.32-5.05H82.02z" fill="#f9b132"/></g></g></g></g></g><g fill="#3a322b"><path d="M17.052,63.132c5.846,5.853,13.898,9.477,22.776,9.477c8.877,0,16.929-3.623,22.775-9.475 c0.023-0.019,0.051-0.026,0.072-0.047c0.023-0.022,0.031-0.052,0.051-0.076c5.816-5.884,9.416-13.988,9.416-22.923 s-3.6-17.039-9.416-22.923c-0.02-0.024-0.028-0.054-0.051-0.076c-0.021-0.021-0.049-0.028-0.072-0.047 c-5.846-5.852-13.898-9.475-22.775-9.475c-8.878,0-16.93,3.624-22.776,9.477c-0.022,0.019-0.05,0.026-0.071,0.047 c-0.022,0.022-0.03,0.051-0.05,0.075c-5.815,5.884-9.416,13.988-9.416,22.923s3.6,17.039,9.416,22.923 c0.02,0.023,0.028,0.053,0.05,0.075C17.002,63.106,17.03,63.113,17.052,63.132z M9.541,41.087h5.237c0.553,0,1-0.447,1-1 s-0.447-1-1-1H9.541c0.247-7.659,3.305-14.611,8.173-19.843l3.693,3.717c0.195,0.196,0.452,0.295,0.709,0.295 c0.255,0,0.51-0.097,0.705-0.291c0.392-0.389,0.394-1.021,0.004-1.414l-3.702-3.726c5.196-4.902,12.099-7.984,19.706-8.234v5.278 c0,0.553,0.447,1,1,1s1-0.447,1-1V9.591c7.606,0.25,14.509,3.331,19.705,8.233l-3.701,3.727c-0.389,0.393-0.387,1.025,0.005,1.415 c0.195,0.193,0.45,0.29,0.705,0.29c0.257,0,0.514-0.099,0.71-0.295l3.692-3.717c4.867,5.232,7.926,12.184,8.173,19.843h-5.237 c-0.553,0-1,0.447-1,1s0.447,1,1,1h5.237c-0.247,7.659-3.305,14.61-8.173,19.843l-3.692-3.717 c-0.392-0.392-1.023-0.394-1.415-0.005c-0.392,0.39-0.394,1.022-0.005,1.415l3.701,3.727c-5.196,4.902-12.099,7.983-19.705,8.233 v-5.278c0-0.553-0.447-1-1-1s-1,0.447-1,1v5.278c-7.606-0.25-14.51-3.331-19.706-8.234l3.702-3.726 c0.39-0.393,0.388-1.025-0.004-1.414c-0.392-0.39-1.024-0.387-1.414,0.004l-3.693,3.717C12.846,55.698,9.787,48.746,9.541,41.087z" fill="inherit"/><path d="M37.455,37.512c-0.691,0.644-1.132,1.556-1.132,2.575c0,1.941,1.572,3.521,3.505,3.521 c1.022,0,1.935-0.45,2.576-1.154l18.344,7.386c0.122,0.049,0.248,0.072,0.373,0.072c0.396,0,0.771-0.236,0.928-0.627 c0.206-0.512-0.042-1.095-0.555-1.301L43.276,40.65c0.03-0.185,0.057-0.37,0.057-0.563c0-1.941-1.572-3.521-3.505-3.521 c-0.199,0-0.391,0.027-0.581,0.059l-6.023-13.34c-0.227-0.503-0.819-0.731-1.322-0.5c-0.504,0.227-0.728,0.819-0.5,1.322 L37.455,37.512z M41.333,40.087c0,0.839-0.675,1.521-1.505,1.521s-1.505-0.683-1.505-1.521s0.675-1.521,1.505-1.521 S41.333,39.248,41.333,40.087z" fill="inherit"/><path d="M117.219,34.044h-10.007v-4.826c0-2.206-1.794-4-4-4h-1.515c-2.206,0-4,1.794-4,4v4.826H79.203 C76.299,14.797,59.749,0,39.828,0C17.867,0,0,17.983,0,40.087C0,53.33,6.418,65.089,16.283,72.393v36.774 c0,4.87,3.939,8.833,8.781,8.833h92.154c4.842,0,8.781-3.963,8.781-8.833v-66.29C126,38.007,122.061,34.044,117.219,34.044z M99.697,29.218c0-1.103,0.897-2,2-2h1.515c1.103,0,2,0.897,2,2v11.651c0,1.103-0.897,2-2,2h-1.515c-1.103,0-2-0.897-2-2V29.218z M97.697,36.044v4.825c0,2.206,1.794,4,4,4h1.515c2.206,0,4-1.794,4-4v-4.825h10.007c3.739,0,6.781,3.065,6.781,6.833v7.558 H78.304c0.878-3.303,1.353-6.77,1.353-10.348c0-1.365-0.069-2.713-0.202-4.043H97.697z M2,40.087C2,19.086,18.97,2,39.828,2 s37.828,17.086,37.828,38.087s-16.97,38.087-37.828,38.087S2,61.088,2,40.087z M88.93,60v10.608h-7.769h-2.757V60H88.93z M101.454,60v10.608H90.93V60H101.454z M113.979,60v10.608h-10.525V60H113.979z M90.93,108.435V97.826h10.524v10.608H90.93z M78.404,108.435V97.826h2.757h7.769v10.608H78.404z M76.151,108.435H65.879V97.826h10.525v10.608H76.151z M53.354,108.435V97.826 h7.768h2.758v10.608H53.354z M40.828,108.435V97.826h10.525v10.608H40.828z M28.303,108.435V97.826h10.525v10.608H28.303z M38.828,80.148v3.069H28.303v-4.762C31.648,79.476,35.178,80.057,38.828,80.148z M51.354,78.456v4.762H40.828v-3.069 C44.478,80.057,48.008,79.476,51.354,78.456z M63.072,72.608h0.807v10.609h-2.758h-7.768V77.79 C56.846,76.517,60.109,74.76,63.072,72.608z M88.93,72.608v10.609h-7.769h-2.757V72.608h2.757H88.93z M81.161,95.826h-2.757 V85.218h2.757h7.769v10.608H81.161z M53.354,95.826V85.218h7.768h2.758v10.608h-2.758H53.354z M28.303,85.218h10.525v10.608 H28.303V85.218z M40.828,85.218h10.525v10.608H40.828V85.218z M65.879,85.218h10.525v10.608H65.879V85.218z M90.93,85.218h10.524 v10.608H90.93V85.218z M103.454,85.218h10.525v10.608h-10.525V85.218z M113.979,83.218h-10.525V72.608h10.525V83.218z M101.454,83.218H90.93V72.608h10.524V83.218z M76.404,83.218H65.879V72.608h10.525V83.218z M103.454,97.826h10.525v10.608 h-10.525V97.826z M76.404,70.608H65.879v-0.238c3.375-2.945,6.253-6.449,8.493-10.371h2.032V70.608z M117.219,116H25.064 c-3.739,0-6.781-3.065-6.781-6.833V73.775c2.498,1.624,5.182,2.98,8.02,4.015v31.644c0,0.553,0.447,1,1,1h48.849h38.828 c0.553,0,1-0.447,1-1V59c0-0.553-0.447-1-1-1H75.443c0.89-1.784,1.651-3.642,2.272-5.565H124v56.732 C124,112.935,120.958,116,117.219,116z" fill="inherit"/></g></g></svg>